<svg width="24" height="24" viewBox="0 0 24 24" fill="none" xmlns="http://www.w3.org/2000/svg">
<path d="M11.9989 5.00884C12 4.60887 11.9212 4.2127 11.767 3.84364C11.6129 3.47457 11.3865 3.14007 11.1011 2.85979C10.8158 2.5795 10.4773 2.35911 10.1055 2.21157C9.73375 2.06403 9.33623 1.99232 8.93635 2.00065C8.53646 2.00899 8.14228 2.0972 7.77699 2.26011C7.4117 2.42301 7.08267 2.65732 6.80926 2.94924C6.53584 3.24117 6.32356 3.58482 6.1849 3.95999C6.04625 4.33516 5.98401 4.73427 6.00185 5.13384M11.9989 5.00884V18.0088M11.9989 5.00884C11.9977 4.60887 12.0765 4.2127 12.2307 3.84364C12.3848 3.47457 12.6112 3.14007 12.8966 2.85979C13.1819 2.5795 13.5204 2.35911 13.8922 2.21157C14.264 2.06403 14.6615 1.99232 15.0614 2.00065C15.4612 2.00899 15.8554 2.0972 16.2207 2.26011C16.586 2.42301 16.915 2.65732 17.1885 2.94924C17.4619 3.24117 17.6741 3.58482 17.8128 3.95999C17.9515 4.33516 18.0137 4.73427 17.9959 5.13384M6.00185 5.13384C5.41405 5.28498 4.86836 5.56789 4.40608 5.96115C3.94381 6.35441 3.57709 6.84771 3.3337 7.40369C3.0903 7.95966 2.97661 8.56373 3.00124 9.17015C3.02587 9.77657 3.18817 10.3694 3.47585 10.9038M6.00185 5.13384C6.02163 5.61757 6.15818 6.08933 6.39985 6.50884M3.47585 10.9038C2.97003 11.3148 2.57228 11.8431 2.31719 12.4428C2.06211 13.0425 1.95741 13.6954 2.01222 14.3448C2.06702 14.9942 2.27967 15.6204 2.63166 16.1689C2.98365 16.7173 3.46432 17.1715 4.03185 17.4918M3.47585 10.9038C3.65879 10.7548 3.85456 10.6233 4.06085 10.5088M4.03185 17.4918C3.96177 18.0341 4.00359 18.5849 4.15474 19.1104C4.30589 19.6358 4.56315 20.1247 4.91064 20.5468C5.25813 20.9689 5.68846 21.3153 6.17507 21.5646C6.66168 21.8139 7.19423 21.9608 7.73983 21.9962C8.28543 22.0316 8.83249 21.9548 9.34724 21.7705C9.86199 21.5861 10.3335 21.2983 10.7326 20.9246C11.1317 20.5509 11.45 20.0994 11.6678 19.5979C11.8856 19.0964 11.9983 18.5556 11.9989 18.0088M4.03185 17.4918C4.63212 17.8304 5.30968 18.0092 5.99885 18.0088M11.9989 18.0088C11.9994 18.5556 12.1121 19.0964 12.3299 19.5979C12.5477 20.0994 12.866 20.5509 13.2651 20.9246C13.6642 21.2983 14.1357 21.5861 14.6505 21.7705C15.1652 21.9548 15.7123 22.0316 16.2579 21.9962C16.8035 21.9608 17.336 21.8139 17.8226 21.5646C18.3092 21.3153 18.7396 20.9689 19.0871 20.5468C19.4346 20.1247 19.6918 19.6358 19.843 19.1104C19.9941 18.5849 20.0359 18.0341 19.9659 17.4918M17.9959 5.13384C18.5837 5.28498 19.1294 5.56789 19.5916 5.96115C20.0539 6.35441 20.4206 6.84771 20.664 7.40369C20.9074 7.95966 21.0211 8.56373 20.9965 9.17015C20.9718 9.77657 20.8095 10.3694 20.5219 10.9038M17.9959 5.13384C17.9758 5.61766 17.8399 6.08942 17.5979 6.50884M20.5219 10.9038C21.0277 11.3148 21.4254 11.8431 21.6805 12.4428C21.9356 13.0425 22.0403 13.6954 21.9855 14.3448C21.9307 14.9942 21.718 15.6204 21.366 16.1689C21.0141 16.7173 20.5334 17.1715 19.9659 17.4918M20.5219 10.9038C20.3389 10.7548 20.1432 10.6233 19.9369 10.5088M19.9659 17.4918C19.3656 17.8304 18.688 18.0092 17.9989 18.0088M14.9989 13.0088C14.1593 12.7135 13.4262 12.1758 12.8922 11.4638C12.3582 10.7519 12.0473 9.89751 11.9989 9.00884C11.9504 9.89751 11.6395 10.7519 11.1055 11.4638C10.5715 12.1758 9.83841 12.7135 8.99885 13.0088" stroke="#474747" stroke-width="2" stroke-linecap="round" stroke-linejoin="round"/>
</svg>
