<svg width="18" height="18" viewBox="0 0 18 18" fill="none" xmlns="http://www.w3.org/2000/svg">
<path d="M9 9H9.0075M12 4.5V3C12 2.60218 11.842 2.22064 11.5607 1.93934C11.2794 1.65804 10.8978 1.5 10.5 1.5H7.5C7.10218 1.5 6.72064 1.65804 6.43934 1.93934C6.15804 2.22064 6 2.60218 6 3V4.5M16.5 9.75C14.2746 11.2192 11.6667 12.0025 9 12.0025C6.33334 12.0025 3.72541 11.2192 1.5 9.75M3 4.5H15C15.8284 4.5 16.5 5.17157 16.5 6V13.5C16.5 14.3284 15.8284 15 15 15H3C2.17157 15 1.5 14.3284 1.5 13.5V6C1.5 5.17157 2.17157 4.5 3 4.5Z" stroke="#9E9E9E" stroke-width="2" stroke-linecap="round" stroke-linejoin="round"/>
</svg>
