<svg width="18" height="18" viewBox="0 0 18 18" fill="none" xmlns="http://www.w3.org/2000/svg">
<path d="M2.48829 6.29347C2.37156 5.76766 2.38948 5.22088 2.5404 4.70384C2.69132 4.18679 2.97034 3.71622 3.3516 3.33576C3.73286 2.9553 4.20401 2.67726 4.72137 2.52743C5.23873 2.37759 5.78554 2.36082 6.31111 2.47865C6.60039 2.02623 6.99891 1.65391 7.46992 1.39601C7.94093 1.13811 8.46929 1.00293 9.00629 1.00293C9.54328 1.00293 10.0716 1.13811 10.5427 1.39601C11.0137 1.65391 11.4122 2.02623 11.7015 2.47865C12.2278 2.3603 12.7756 2.37701 13.2938 2.5272C13.8119 2.6774 14.2837 2.95621 14.6652 3.33771C15.0467 3.7192 15.3255 4.19098 15.4757 4.70916C15.6259 5.22735 15.6426 5.7751 15.5243 6.30147C15.9767 6.59075 16.349 6.98926 16.6069 7.46028C16.8648 7.93129 17 8.45965 17 8.99664C17 9.53364 16.8648 10.062 16.6069 10.533C16.349 11.004 15.9767 11.4025 15.5243 11.6918C15.6421 12.2174 15.6253 12.7642 15.4755 13.2816C15.3257 13.7989 15.0476 14.2701 14.6672 14.6513C14.2867 15.0326 13.8161 15.3116 13.2991 15.4625C12.7821 15.6134 12.2353 15.6314 11.7095 15.5146C11.4206 15.9688 11.0217 16.3427 10.5499 16.6018C10.0781 16.8608 9.54854 16.9966 9.01028 16.9966C8.47203 16.9966 7.94247 16.8608 7.47066 16.6018C6.99884 16.3427 6.60002 15.9688 6.31111 15.5146C5.78554 15.6325 5.23873 15.6157 4.72137 15.4659C4.20401 15.316 3.73286 15.038 3.3516 14.6575C2.97034 14.2771 2.69132 13.8065 2.5404 13.2895C2.38948 12.7724 2.37156 12.2256 2.48829 11.6998C2.0324 11.4113 1.65688 11.0122 1.39666 10.5395C1.13645 10.0669 1 9.53616 1 8.99664C1 8.45712 1.13645 7.92637 1.39666 7.45375C1.65688 6.98113 2.0324 6.58199 2.48829 6.29347Z" fill="#57C016"/>
<path d="M6.60702 8.99664L8.20653 10.5962L11.4055 7.39714" fill="#57C016"/>
<path d="M6.60702 8.99664L8.20653 10.5962L11.4055 7.39714M2.48829 6.29347C2.37156 5.76766 2.38948 5.22088 2.5404 4.70384C2.69132 4.18679 2.97034 3.71622 3.3516 3.33576C3.73286 2.9553 4.20401 2.67726 4.72137 2.52743C5.23873 2.37759 5.78554 2.36082 6.31111 2.47865C6.60039 2.02623 6.99891 1.65391 7.46992 1.39601C7.94093 1.13811 8.46929 1.00293 9.00629 1.00293C9.54328 1.00293 10.0716 1.13811 10.5427 1.39601C11.0137 1.65391 11.4122 2.02623 11.7015 2.47865C12.2278 2.3603 12.7756 2.37701 13.2938 2.5272C13.8119 2.6774 14.2837 2.95621 14.6652 3.33771C15.0467 3.7192 15.3255 4.19098 15.4757 4.70916C15.6259 5.22735 15.6426 5.7751 15.5243 6.30147C15.9767 6.59075 16.349 6.98926 16.6069 7.46028C16.8648 7.93129 17 8.45965 17 8.99664C17 9.53364 16.8648 10.062 16.6069 10.533C16.349 11.004 15.9767 11.4025 15.5243 11.6918C15.6421 12.2174 15.6253 12.7642 15.4755 13.2816C15.3257 13.7989 15.0476 14.2701 14.6672 14.6513C14.2867 15.0326 13.8161 15.3116 13.2991 15.4625C12.7821 15.6134 12.2353 15.6314 11.7095 15.5146C11.4206 15.9688 11.0217 16.3427 10.5499 16.6018C10.0781 16.8608 9.54854 16.9966 9.01028 16.9966C8.47203 16.9966 7.94247 16.8608 7.47066 16.6018C6.99884 16.3427 6.60002 15.9688 6.31111 15.5146C5.78554 15.6325 5.23873 15.6157 4.72137 15.4659C4.20401 15.316 3.73286 15.038 3.3516 14.6575C2.97034 14.2771 2.69132 13.8065 2.5404 13.2895C2.38948 12.7724 2.37156 12.2256 2.48829 11.6998C2.0324 11.4113 1.65688 11.0122 1.39666 10.5395C1.13645 10.0669 1 9.53616 1 8.99664C1 8.45712 1.13645 7.92637 1.39666 7.45375C1.65688 6.98113 2.0324 6.58199 2.48829 6.29347Z" stroke="#FEFEFE" stroke-width="2" stroke-linecap="round" stroke-linejoin="round"/>
</svg>
