<svg width="24" height="24" viewBox="0 0 24 24" fill="none" xmlns="http://www.w3.org/2000/svg">
<path d="M0 11.9999C0 5.52653 5.24772 0.278809 11.7211 0.278809H12.2789C18.7523 0.278809 24 5.52653 24 11.9999C24 18.4733 18.7523 23.721 12.2789 23.721H11.7211C5.24772 23.721 0 18.4733 0 11.9999Z" fill="#FFE58F"/>
<path d="M11.7156 6.45573C11.7419 6.40261 11.7825 6.3579 11.8328 6.32664C11.8832 6.29537 11.9413 6.27881 12.0005 6.27881C12.0598 6.27881 12.1179 6.29537 12.1683 6.32664C12.2186 6.3579 12.2592 6.40261 12.2855 6.45573L13.6714 9.26288C13.7627 9.44764 13.8975 9.60749 14.0641 9.72871C14.2308 9.84992 14.4244 9.92888 14.6283 9.95881L17.7276 10.4124C17.7863 10.4209 17.8415 10.4457 17.8869 10.4839C17.9323 10.5221 17.9661 10.5723 17.9844 10.6287C18.0028 10.6851 18.005 10.7456 17.9908 10.8032C17.9765 10.8608 17.9465 10.9133 17.904 10.9547L15.6626 13.1373C15.5148 13.2814 15.4042 13.4592 15.3403 13.6555C15.2765 13.8517 15.2613 14.0606 15.296 14.264L15.8252 17.3477C15.8356 17.4064 15.8292 17.4669 15.8069 17.5221C15.7846 17.5774 15.7472 17.6253 15.6989 17.6603C15.6507 17.6953 15.5936 17.7161 15.5341 17.7202C15.4747 17.7244 15.4152 17.7117 15.3626 17.6837L12.5921 16.227C12.4095 16.1312 12.2064 16.0811 12.0002 16.0811C11.794 16.0811 11.5909 16.1312 11.4084 16.227L8.63844 17.6837C8.58585 17.7116 8.52649 17.7241 8.46713 17.7199C8.40777 17.7156 8.35078 17.6949 8.30265 17.6598C8.25452 17.6248 8.21718 17.577 8.19488 17.5219C8.17257 17.4667 8.1662 17.4064 8.17648 17.3477L8.70504 14.2646C8.73995 14.0611 8.72482 13.8521 8.66096 13.6557C8.5971 13.4593 8.48642 13.2814 8.33847 13.1373L6.09707 10.9553C6.05423 10.9139 6.02387 10.8614 6.00946 10.8036C5.99504 10.7458 5.99714 10.6851 6.01553 10.6285C6.03391 10.5718 6.06783 10.5215 6.11344 10.4832C6.15904 10.4448 6.21448 10.4201 6.27346 10.4118L9.37218 9.95881C9.57631 9.92911 9.77017 9.85026 9.93708 9.72903C10.104 9.60779 10.2389 9.44782 10.3303 9.26288L11.7156 6.45573Z" fill="#FFCD29"/>
</svg>
