<svg width="48" height="48" viewBox="0 0 48 48" fill="none" xmlns="http://www.w3.org/2000/svg">
<rect width="48" height="48" rx="24" fill="#FFF1C2"/>
<path fill-rule="evenodd" clip-rule="evenodd" d="M31.2003 19.2C31.2003 23.1765 27.9767 26.4 24.0003 26.4C20.0238 26.4 16.8003 23.1765 16.8003 19.2C16.8003 15.2235 20.0238 12 24.0003 12C27.9767 12 31.2003 15.2235 31.2003 19.2ZM28.8003 19.2C28.8003 21.851 26.6513 24 24.0003 24C21.3493 24 19.2003 21.851 19.2003 19.2C19.2003 16.549 21.3493 14.4 24.0003 14.4C26.6513 14.4 28.8003 16.549 28.8003 19.2Z" fill="#B69011"/>
<path d="M24.0003 30C16.231 30 9.61142 34.5941 7.08984 41.0305C7.70412 41.6404 8.35121 42.2174 9.02824 42.7585C10.9059 36.8492 16.7964 32.4 24.0003 32.4C31.2042 32.4 37.0947 36.8492 38.9724 42.7585C39.6494 42.2174 40.2965 41.6404 40.9108 41.0305C38.3892 34.5941 31.7696 30 24.0003 30Z" fill="#B69011"/>
</svg>
