<svg width="34" height="34" viewBox="0 0 34 34" fill="none" xmlns="http://www.w3.org/2000/svg">
<path d="M0 17C0 7.61116 7.61116 0 17 0C26.3888 0 34 7.61116 34 17C34 26.3888 26.3888 34 17 34C7.61116 34 0 26.3888 0 17Z" fill="#294517"/>
<path d="M25.588 20.8162C25.1704 20.2093 25.4035 19.3321 25.2996 18.3635C25.1926 16.7832 24.5136 15.2523 23.1966 14.0277L18.7106 9.85661C18.7106 9.85661 17.8267 9.03404 17.0036 9.91849C16.1816 10.8023 17.0661 11.6249 17.0661 11.6249L18.9612 13.3878L20.6039 14.9152C20.6039 14.9152 20.1923 15.3574 18.3741 13.6666L12.2334 7.95491C12.2334 7.95491 11.3484 7.13294 10.5258 8.01739C9.70382 8.90125 10.5877 9.72382 10.5877 9.72382L16.3943 15.1249C16.3817 15.1129 15.9551 15.5407 15.9473 15.5335L9.73446 9.75506C9.73446 9.75506 8.85001 8.93249 8.02744 9.81695C7.20487 10.7014 8.08933 11.5234 8.08933 11.5234L14.3027 17.303C14.31 17.3102 13.9098 17.762 13.9218 17.7734L8.5622 12.7876C8.5622 12.7876 7.67774 11.965 6.85517 12.8495C6.03261 13.7339 6.91706 14.5565 6.91706 14.5565L12.6156 19.856C12.6678 19.9047 12.3151 20.4016 12.3806 20.4623L8.27439 16.6432C8.27439 16.6432 7.38993 15.8207 6.56737 16.7057C5.7448 17.5902 6.62925 18.4128 6.62925 18.4128L13.327 24.6394C14.4451 25.6795 15.5934 26.2058 16.9777 26.3987C17.2595 26.4377 17.6201 26.4377 17.7679 26.4564C18.2347 26.5153 18.6445 26.6811 19.1931 27.0176C19.8991 27.4502 20.9584 27.6304 21.5671 26.9797L23.6424 24.7596L25.5585 22.7094C26.1666 22.0593 26.0578 21.4981 25.588 20.8162Z" fill="#408415"/>
<path d="M7.35443 27.2326C7.20061 27.2326 7.04679 27.1737 6.92963 27.0566C6.69469 26.8216 6.69469 26.4419 6.92963 26.207L9.06325 24.0745C9.29819 23.8396 9.67793 23.8396 9.91286 24.0745C10.1478 24.3095 10.1478 24.6892 9.91286 24.9241L7.77923 27.0572C7.66207 27.1743 7.50825 27.2326 7.35443 27.2326ZM11.4078 27.7866C11.3423 27.7866 11.275 27.7758 11.2089 27.753C10.8959 27.6436 10.7306 27.3011 10.8406 26.9875L11.424 25.3213C11.5334 25.0083 11.8764 24.8436 12.1895 24.9524C12.5025 25.0623 12.6678 25.4048 12.5578 25.7179L11.9744 27.384C11.8879 27.6316 11.6559 27.7866 11.4078 27.7866ZM6.80104 23.1799C6.55349 23.1799 6.32156 23.0254 6.23444 22.7791C6.12388 22.4661 6.28791 22.123 6.60096 22.0124L8.10009 21.4831C8.41433 21.3749 8.75622 21.5377 8.86677 21.8496C8.97733 22.1626 8.8133 22.5057 8.50025 22.6163L7.00113 23.1456C6.93443 23.1691 6.86714 23.1799 6.80104 23.1799ZM24.5022 10.1011C24.3483 10.1011 24.1945 10.0422 24.0774 9.92505C23.8424 9.69012 23.8424 9.30978 24.0774 9.07485L26.2116 6.94182C26.4465 6.70748 26.8263 6.70748 27.0612 6.94182C27.2961 7.17615 27.2961 7.55709 27.0612 7.79202L24.927 9.92505C24.8098 10.0428 24.656 10.1011 24.5022 10.1011ZM22.0002 9.08145C21.9347 9.08145 21.8674 9.07004 21.8019 9.04721C21.4889 8.93785 21.3237 8.59536 21.433 8.28172L22.0158 6.61555C22.1258 6.30251 22.4677 6.13728 22.7813 6.24663C23.0944 6.35599 23.2596 6.69847 23.1502 7.01212L22.5674 8.67828C22.4809 8.92643 22.2484 9.08145 22.0002 9.08145ZM25.6913 12.5508C25.4437 12.5508 25.2118 12.3964 25.1247 12.15C25.0141 11.837 25.1787 11.4939 25.4912 11.3833L26.9897 10.854C27.3033 10.7428 27.6458 10.908 27.7564 11.2205C27.8669 11.5335 27.7023 11.8766 27.3899 11.9872L25.8913 12.5165C25.8246 12.54 25.7573 12.5508 25.6913 12.5508Z" fill="#FFCD29"/>
<path d="M27.4434 20.5008C27.0462 19.8807 27.3088 19.0113 27.2379 18.0397C27.1838 16.457 26.5571 14.9038 25.2821 13.6354L20.9391 9.3159C20.9391 9.3159 20.0835 8.46449 19.2309 9.32071C18.3795 10.1763 19.2357 11.0283 19.2357 11.0283L21.0707 12.8543L22.6606 14.4358C22.6606 14.4358 22.234 14.8636 20.4741 13.1127C18.713 11.3612 14.5292 7.1973 14.5292 7.1973C14.5292 7.1973 13.673 6.34589 12.821 7.2021C11.969 8.05772 12.8252 8.90913 12.8252 8.90913L18.4468 14.5031C18.4348 14.491 17.9938 14.9038 17.986 14.896L11.9714 8.91153C11.9714 8.91153 11.1152 8.05952 10.2632 8.91574C9.41178 9.77195 10.2674 10.6234 10.2674 10.6234L16.2825 16.6091C16.2897 16.6163 15.874 17.0543 15.886 17.0663L10.6976 11.9032C10.6976 11.9032 9.84139 11.0518 8.98938 11.908C8.13737 12.7642 8.99359 13.6162 8.99359 13.6162L14.51 19.105C14.5605 19.1549 14.1916 19.6404 14.2547 19.7034L10.2794 15.748C10.2794 15.748 9.4232 14.8966 8.57119 15.7528C7.71918 16.6091 8.57539 17.4611 8.57539 17.4611L15.0586 23.9094C16.1413 24.9867 17.2709 25.5509 18.6481 25.7907C18.9287 25.8394 19.2892 25.8514 19.4358 25.8748C19.9003 25.9493 20.304 26.129 20.8418 26.4841C21.5328 26.9401 22.5855 27.1558 23.2158 26.5261L25.365 24.3775L27.349 22.3935C27.9793 21.7626 27.8898 21.1978 27.4434 20.5008Z" fill="#AEFD7D"/>
</svg>
