<svg width="34" height="34" viewBox="0 0 34 34" fill="none" xmlns="http://www.w3.org/2000/svg">
<path d="M0 17C0 7.61116 7.61116 0 17 0C26.3888 0 34 7.61116 34 17C34 26.3888 26.3888 34 17 34C7.61116 34 0 26.3888 0 17Z" fill="#FFD95C"/>
<path d="M27.8 13.2763C27.8 9.98523 25.1321 7.31738 21.8417 7.31738C19.8441 7.31738 18.0815 8.30348 17 9.81071C15.9184 8.30348 14.1558 7.31738 12.1588 7.31738C8.8678 7.31738 6.19995 9.98462 6.19995 13.2763C6.19995 13.7424 6.25913 14.1941 6.36058 14.6295C7.18786 19.7701 12.9034 25.1934 17 26.6825C21.0959 25.1934 26.812 19.7701 27.6381 14.6301C27.7408 14.1947 27.8 13.743 27.8 13.2763Z" fill="#FF3E3E"/>
</svg>
