<svg width="34" height="35" viewBox="0 0 34 35" fill="none" xmlns="http://www.w3.org/2000/svg">
<rect x="6" y="6.5" width="22" height="22" rx="11" stroke="#737373" stroke-width="2"/>
<path fill-rule="evenodd" clip-rule="evenodd" d="M20.6001 15.1C20.6001 17.0882 18.9884 18.7 17.0001 18.7C15.0119 18.7 13.4001 17.0882 13.4001 15.1C13.4001 13.1118 15.0119 11.5 17.0001 11.5C18.9884 11.5 20.6001 13.1118 20.6001 15.1ZM19.4001 15.1C19.4001 16.4255 18.3256 17.5 17.0001 17.5C15.6747 17.5 14.6001 16.4255 14.6001 15.1C14.6001 13.7745 15.6747 12.7 17.0001 12.7C18.3256 12.7 19.4001 13.7745 19.4001 15.1Z" fill="#737373"/>
<path d="M17.0001 20.5C13.1155 20.5 9.80571 22.797 8.54492 26.0152C8.85206 26.3202 9.1756 26.6087 9.51412 26.8792C10.453 23.9246 13.3982 21.7 17.0001 21.7C20.6021 21.7 23.5473 23.9246 24.4862 26.8792C24.8247 26.6087 25.1482 26.3202 25.4554 26.0152C24.1946 22.7971 20.8848 20.5 17.0001 20.5Z" fill="#737373"/>
</svg>
