<svg width="34" height="34" viewBox="0 0 34 34" fill="none" xmlns="http://www.w3.org/2000/svg">
<path d="M0 17C0 7.61116 7.61116 0 17 0C26.3888 0 34 7.61116 34 17C34 26.3888 26.3888 34 17 34C7.61116 34 0 26.3888 0 17Z" fill="#B69011"/>
<path d="M27.8 17.0002C27.8 22.9648 22.9646 27.8002 17 27.8002C11.036 27.8002 6.19995 22.9648 6.19995 17.0002C6.19995 11.0362 11.036 6.2002 17 6.2002C22.9646 6.2002 27.8 11.0362 27.8 17.0002Z" fill="#AEFD7D"/>
<path d="M13.1 18.201C13.9284 18.201 14.6 17.2608 14.6 16.101C14.6 14.9412 13.9284 14.001 13.1 14.001C12.2715 14.001 11.6 14.9412 11.6 16.101C11.6 17.2608 12.2715 18.201 13.1 18.201Z" fill="#408415"/>
<path d="M20.9 18.201C21.7285 18.201 22.4 17.2608 22.4 16.101C22.4 14.9412 21.7285 14.001 20.9 14.001C20.0716 14.001 19.4 14.9412 19.4 16.101C19.4 17.2608 20.0716 18.201 20.9 18.201Z" fill="#408415"/>
<path d="M20.291 22.9282C20.2844 22.9018 19.604 20.3008 17 20.3008C14.396 20.3008 13.7156 22.9018 13.709 22.9282C13.6772 23.056 13.7354 23.1868 13.8482 23.2546C13.961 23.3218 14.108 23.3062 14.2058 23.2186C14.2112 23.2144 14.8136 22.7008 17 22.7008C19.154 22.7008 19.7702 23.1988 19.7936 23.2186C19.8506 23.2732 19.925 23.3008 20 23.3008C20.0504 23.3008 20.1014 23.2882 20.1476 23.2624C20.2652 23.1958 20.324 23.059 20.291 22.9282Z" fill="#408415"/>
<path d="M12.2 24.2012C12.2 25.8584 10.8572 27.2012 9.19995 27.2012C7.54275 27.2012 6.19995 25.8584 6.19995 24.2012C6.19995 22.544 8.59995 18.2012 9.19995 18.2012C9.79995 18.2012 12.2 22.544 12.2 24.2012Z" fill="#5DADEC"/>
<path d="M24.1998 14.0001C20.8674 14.0001 19.5186 11.3799 19.4628 11.2683C19.3146 10.9719 19.4346 10.6113 19.731 10.4631C20.0262 10.3149 20.3862 10.4343 20.535 10.7289C20.58 10.8165 21.6276 12.8001 24.1998 12.8001C24.5316 12.8001 24.7998 13.0689 24.7998 13.4001C24.7998 13.7319 24.5316 14.0001 24.1998 14.0001ZM9.79983 14.0001C9.46863 14.0001 9.19983 13.7313 9.19983 13.4001C9.19983 13.0689 9.46863 12.8001 9.79983 12.8001C12.8496 12.8001 13.3974 10.9281 13.4196 10.8483C13.5066 10.5315 13.8336 10.3395 14.151 10.4229C14.469 10.5063 14.6616 10.8267 14.5818 11.1459C14.5524 11.2623 13.8222 14.0001 9.79983 14.0001Z" fill="#408415"/>
</svg>
