<svg width="34" height="34" viewBox="0 0 34 34" fill="none" xmlns="http://www.w3.org/2000/svg">
<path d="M0 17C0 7.61116 7.61116 0 17 0C26.3888 0 34 7.61116 34 17C34 26.3888 26.3888 34 17 34C7.61116 34 0 26.3888 0 17Z" fill="#408415"/>
<path d="M17 27.8002C22.9646 27.8002 27.8 22.9649 27.8 17.0002C27.8 11.0355 22.9646 6.2002 17 6.2002C11.0353 6.2002 6.19995 11.0355 6.19995 17.0002C6.19995 22.9649 11.0353 27.8002 17 27.8002Z" fill="#AEFD7D"/>
<path d="M17 18.7997C14.8262 18.7997 13.3838 18.5465 11.6 18.1997C11.1926 18.1211 10.4 18.1997 10.4 19.3997C10.4 21.7997 13.157 24.7997 17 24.7997C20.8424 24.7997 23.6 21.7997 23.6 19.3997C23.6 18.1997 22.8074 18.1205 22.4 18.1997C20.6162 18.5465 19.1738 18.7997 17 18.7997Z" fill="#408415"/>
<path d="M11.6 19.4004C11.6 19.4004 13.4 20.0004 17 20.0004C20.6 20.0004 22.4 19.4004 22.4 19.4004C22.4 19.4004 21.2 21.8004 17 21.8004C12.8 21.8004 11.6 19.4004 11.6 19.4004Z" fill="#FEFEFE"/>
<path d="M13.3999 16.4002C14.2283 16.4002 14.8999 15.46 14.8999 14.3002C14.8999 13.1404 14.2283 12.2002 13.3999 12.2002C12.5715 12.2002 11.8999 13.1404 11.8999 14.3002C11.8999 15.46 12.5715 16.4002 13.3999 16.4002Z" fill="#408415"/>
<path d="M20.6 16.4002C21.4284 16.4002 22.1 15.46 22.1 14.3002C22.1 13.1404 21.4284 12.2002 20.6 12.2002C19.7715 12.2002 19.1 13.1404 19.1 14.3002C19.1 15.46 19.7715 16.4002 20.6 16.4002Z" fill="#408415"/>
</svg>
