<svg width="34" height="34" viewBox="0 0 34 34" fill="none" xmlns="http://www.w3.org/2000/svg">
<path d="M0 17C0 7.61116 7.61116 0 17 0C26.3888 0 34 7.61116 34 17C34 26.3888 26.3888 34 17 34C7.61116 34 0 26.3888 0 17Z" fill="#408415"/>
<path d="M27.8 16.8624C27.8 16.5231 27.719 16.2046 27.5834 15.9152C26.6787 12.9968 22.4435 13.21 16.4191 13.0677C15.4119 13.044 15.988 11.8547 16.3415 9.2439C16.5716 7.54588 15.4767 4.93848 13.6363 4.93848C10.6019 4.93848 13.5209 7.33203 10.838 13.2511C9.4044 16.4138 6.19995 14.6422 6.19995 17.819V25.0503C6.19995 26.2868 6.32138 27.4755 8.06055 27.6712C9.74643 27.8607 9.36729 29.0622 11.7993 29.0622H23.9722C25.2121 29.0622 26.2207 28.053 26.2207 26.813C26.2207 26.299 26.0405 25.8308 25.7498 25.4517C26.4379 25.0665 26.9101 24.3392 26.9101 23.4959C26.9101 22.9832 26.7307 22.515 26.4406 22.1366C27.1307 21.752 27.6043 21.0241 27.6043 20.1795C27.6043 19.5663 27.3561 19.0104 26.956 18.6036C27.4667 18.1914 27.8 17.568 27.8 16.8624Z" fill="#AEFD7D"/>
<path d="M19.7477 19.1103H25.5522C26.3415 19.1103 27.0822 18.688 27.4856 18.0086C27.6516 17.7287 27.5591 17.3664 27.2785 17.1998C26.9985 17.0331 26.6363 17.1269 26.4696 17.4069C26.2787 17.73 25.9259 17.9297 25.5515 17.9297H19.6081C19.0191 17.9297 18.5401 17.4507 18.5401 16.8618C18.5401 16.2728 19.0191 15.7939 19.6081 15.7939H23.5796C23.9054 15.7939 24.1699 15.5294 24.1699 15.2036C24.1699 14.8777 23.9054 14.6133 23.5796 14.6133H19.6074C18.3674 14.6133 17.3589 15.6218 17.3589 16.8618C17.3589 17.5533 17.6793 18.1652 18.1718 18.578C17.7569 18.9862 17.4985 19.5529 17.4985 20.1789C17.4985 20.8724 17.821 21.4863 18.3162 21.8985C17.904 22.306 17.6483 22.8706 17.6483 23.4953C17.6483 24.2509 18.0254 24.9174 18.5988 25.3256C18.2453 25.7229 18.0241 26.2404 18.0241 26.8124C18.0241 28.0524 19.0326 29.061 20.2726 29.061H23.9722C24.7615 29.061 25.5029 28.6393 25.9063 27.96C26.073 27.68 25.9805 27.3177 25.7006 27.1511C25.4199 26.9858 25.0577 27.0769 24.8917 27.3569C24.6994 27.68 24.3466 27.8804 23.9722 27.8804H20.2726C19.6836 27.8804 19.2046 27.4014 19.2046 26.8124C19.2046 26.2235 19.6836 25.7445 20.2726 25.7445H24.6617C25.451 25.7445 26.193 25.3222 26.5958 24.6429C26.7624 24.3622 26.67 23.9999 26.39 23.834C26.1074 23.6647 25.7464 23.7598 25.5812 24.0398C25.3862 24.3683 25.0421 24.5639 24.6617 24.5639H19.8968C19.3079 24.5639 18.8289 24.0843 18.8289 23.4953C18.8289 22.9064 19.3079 22.4274 19.8968 22.4274H25.3552C26.1445 22.4274 26.8859 22.0058 27.2893 21.3264C27.4559 21.0465 27.3635 20.6842 27.0835 20.5176C26.8022 20.3516 26.4406 20.4434 26.2747 20.7233C26.0797 21.0512 25.7357 21.2468 25.3552 21.2468H19.7477C19.1588 21.2468 18.6798 20.7678 18.6798 20.1789C18.6798 19.59 19.1581 19.1103 19.7477 19.1103Z" fill="#408415"/>
</svg>
