<svg width="18" height="18" viewBox="0 0 18 18" fill="none" xmlns="http://www.w3.org/2000/svg">
<mask id="mask0_4593_508" style="mask-type:alpha" maskUnits="userSpaceOnUse" x="0" y="0" width="18" height="18">
<rect width="18" height="18" fill="#D9D9D9"/>
</mask>
<g mask="url(#mask0_4593_508)">
<path d="M12.1667 14.0824H4.83333V5.41569L9.5 0.749023L10.3333 1.58236C10.4111 1.66013 10.475 1.76569 10.525 1.89902C10.575 2.03236 10.6 2.16013 10.6 2.28236V2.51569L9.86667 5.41569H14.1667C14.5222 5.41569 14.8333 5.54902 15.1 5.81569C15.3667 6.08236 15.5 6.39347 15.5 6.74902V8.08236C15.5 8.16013 15.4889 8.24347 15.4667 8.33236C15.4444 8.42125 15.4222 8.50458 15.4 8.58236L13.4 13.2824C13.3 13.5046 13.1333 13.6935 12.9 13.849C12.6667 14.0046 12.4222 14.0824 12.1667 14.0824ZM6.16667 12.749H12.1667L14.1667 8.08236V6.74902H8.16667L9.06667 3.08236L6.16667 5.98236V12.749ZM4.83333 5.41569V6.74902H2.83333V12.749H4.83333V14.0824H1.5V5.41569H4.83333Z" fill="#474747"/>
</g>
</svg>
