<svg width="19" height="18" viewBox="0 0 19 18" fill="none" xmlns="http://www.w3.org/2000/svg">
<mask id="mask0_4593_1336" style="mask-type:alpha" maskUnits="userSpaceOnUse" x="0" y="0" width="19" height="18">
<rect x="0.5" width="18" height="18" fill="#D9D9D9"/>
</mask>
<g mask="url(#mask0_4593_1336)">
<path d="M9 15.5L7.1275 12.7H3.4C3.015 12.7 2.68542 12.5629 2.41125 12.2887C2.13708 12.0146 2 11.685 2 11.3V2.9C2 2.515 2.13708 2.18542 2.41125 1.91125C2.68542 1.63708 3.015 1.5 3.4 1.5H14.6C14.985 1.5 15.3146 1.63708 15.5887 1.91125C15.8629 2.18542 16 2.515 16 2.9V11.3C16 11.685 15.8629 12.0146 15.5887 12.2887C15.3146 12.5629 14.985 12.7 14.6 12.7H10.8725L9 15.5ZM9 12.98L10.12 11.3H14.6V2.9H3.4V11.3H7.88L9 12.98Z" fill="#474747"/>
</g>
</svg>
