<svg width="39" height="39" viewBox="0 0 39 39" fill="none" xmlns="http://www.w3.org/2000/svg">
<g clip-path="url(#clip0_8146_16005)">
<path d="M26.041 15.0565C24.6866 13.6711 22.8187 12.8105 20.8435 12.6553C20.8548 12.6666 20.8661 12.6779 20.8774 12.6892C22.8497 14.7095 23.9135 17.3139 23.874 20.0227C23.8345 22.7314 22.6748 25.2201 20.8182 27.0909C24.8023 26.789 28.0162 23.6795 28.0726 19.9719C28.098 18.1716 27.3785 16.425 26.041 15.0565ZM26.041 15.0565C24.6866 13.6711 22.8187 12.8105 20.8435 12.6553C20.8548 12.6666 20.8661 12.6779 20.8774 12.6892C22.8497 14.7095 23.9135 17.3139 23.874 20.0227C23.8345 22.7314 22.6748 25.2201 20.8182 27.0909C24.8023 26.789 28.0162 23.6795 28.0726 19.9719C28.098 18.1716 27.3785 16.425 26.041 15.0565ZM26.041 15.0565C24.6866 13.6711 22.8187 12.8105 20.8435 12.6553C20.8548 12.6666 20.8661 12.6779 20.8774 12.6892C22.8497 14.7095 23.9135 17.3139 23.874 20.0227C23.8345 22.7314 22.6748 25.2201 20.8182 27.0909C24.8023 26.789 28.0162 23.6795 28.0726 19.9719C28.098 18.1716 27.3785 16.425 26.041 15.0565ZM26.041 15.0565C24.6866 13.6711 22.8187 12.8105 20.8435 12.6553C20.8548 12.6666 20.8661 12.6779 20.8774 12.6892C22.8497 14.7095 23.9135 17.3139 23.874 20.0227C23.8345 22.7314 22.6748 25.2201 20.8182 27.0909C24.8023 26.789 28.0162 23.6795 28.0726 19.9719C28.098 18.1716 27.3785 16.425 26.041 15.0565ZM26.041 15.0565C24.6866 13.6711 22.8187 12.8105 20.8435 12.6553C20.8548 12.6666 20.8661 12.6779 20.8774 12.6892C22.8497 14.7095 23.9135 17.3139 23.874 20.0227C23.8345 22.7314 22.6748 25.2201 20.8182 27.0909C24.8023 26.789 28.0162 23.6795 28.0726 19.9719C28.098 18.1716 27.3785 16.425 26.041 15.0565ZM26.041 15.0565C24.6866 13.6711 22.8187 12.8105 20.8435 12.6553C20.8548 12.6666 20.8661 12.6779 20.8774 12.6892C22.8497 14.7095 23.9135 17.3139 23.874 20.0227C23.8345 22.7314 22.6748 25.2201 20.8182 27.0909C24.8023 26.789 28.0162 23.6795 28.0726 19.9719C28.098 18.1716 27.3785 16.425 26.041 15.0565ZM26.041 15.0565C24.6866 13.6711 22.8187 12.8105 20.8435 12.6553C20.8548 12.6666 20.8661 12.6779 20.8774 12.6892C22.8497 14.7095 23.9135 17.3139 23.874 20.0227C23.8345 22.7314 22.6748 25.2201 20.8182 27.0909C24.8023 26.789 28.0162 23.6795 28.0726 19.9719C28.098 18.1716 27.3785 16.425 26.041 15.0565ZM26.041 15.0565C24.6866 13.6711 22.8187 12.8105 20.8435 12.6553C20.8548 12.6666 20.8661 12.6779 20.8774 12.6892C22.8497 14.7095 23.9135 17.3139 23.874 20.0227C23.8345 22.7314 22.6748 25.2201 20.8182 27.0909C24.8023 26.789 28.0162 23.6795 28.0726 19.9719C28.098 18.1716 27.3785 16.425 26.041 15.0565ZM35.6459 9.81391C30.3723 0.6774 18.6906 -2.45463 9.55411 2.82186C0.417601 8.09553 -2.71161 19.7772 2.56206 28.9137C7.83855 38.0502 19.5202 41.1794 28.6539 35.9057C37.7904 30.6321 40.9224 18.9476 35.6459 9.81391ZM7.65514 19.8703C7.65514 17.091 9.90964 14.8393 12.689 14.8393C15.4683 14.8393 17.72 17.091 17.72 19.8703C17.72 22.6496 15.4683 24.9013 12.689 24.9013C9.90964 24.9013 7.65514 22.6496 7.65514 19.8703ZM20.4457 30.4966L20.3808 27.5085C18.4056 29.3031 15.7561 30.4346 12.8611 30.4966L12.7849 27.1135C16.9751 27.0204 20.4288 23.8178 20.488 19.9719C20.5134 18.1716 19.7939 16.425 18.4564 15.0565C16.9694 13.5329 14.8616 12.6469 12.672 12.6271L12.7031 9.24112C15.4993 9.26651 18.2081 10.3021 20.2623 12.1051L20.2877 9.24112C23.3717 9.26933 26.3514 10.5278 28.462 12.6892C30.4343 14.7095 31.4981 17.3139 31.4586 20.0227C31.374 25.666 26.4332 30.364 20.4457 30.4966ZM20.8435 12.6553C20.8435 12.6553 20.8661 12.6779 20.8774 12.6892C22.8497 14.7095 23.9135 17.3139 23.874 20.0227C23.8345 22.7314 22.6748 25.2201 20.8182 27.0909C24.8023 26.789 28.0162 23.6795 28.0726 19.9719C28.098 18.1716 27.3785 16.425 26.041 15.0565C24.6866 13.6711 22.8187 12.8105 20.8435 12.6553ZM26.041 15.0565C24.6866 13.6711 22.8187 12.8105 20.8435 12.6553C20.8548 12.6666 20.8661 12.6779 20.8774 12.6892C22.8497 14.7095 23.9135 17.3139 23.874 20.0227C23.8345 22.7314 22.6748 25.2201 20.8182 27.0909C24.8023 26.789 28.0162 23.6795 28.0726 19.9719C28.098 18.1716 27.3785 16.425 26.041 15.0565ZM26.041 15.0565C24.6866 13.6711 22.8187 12.8105 20.8435 12.6553C20.8548 12.6666 20.8661 12.6779 20.8774 12.6892C22.8497 14.7095 23.9135 17.3139 23.874 20.0227C23.8345 22.7314 22.6748 25.2201 20.8182 27.0909C24.8023 26.789 28.0162 23.6795 28.0726 19.9719C28.098 18.1716 27.3785 16.425 26.041 15.0565ZM26.041 15.0565C24.6866 13.6711 22.8187 12.8105 20.8435 12.6553C20.8548 12.6666 20.8661 12.6779 20.8774 12.6892C22.8497 14.7095 23.9135 17.3139 23.874 20.0227C23.8345 22.7314 22.6748 25.2201 20.8182 27.0909C24.8023 26.789 28.0162 23.6795 28.0726 19.9719C28.098 18.1716 27.3785 16.425 26.041 15.0565ZM26.041 15.0565C24.6866 13.6711 22.8187 12.8105 20.8435 12.6553C20.8548 12.6666 20.8661 12.6779 20.8774 12.6892C22.8497 14.7095 23.9135 17.3139 23.874 20.0227C23.8345 22.7314 22.6748 25.2201 20.8182 27.0909C24.8023 26.789 28.0162 23.6795 28.0726 19.9719C28.098 18.1716 27.3785 16.425 26.041 15.0565ZM26.041 15.0565C24.6866 13.6711 22.8187 12.8105 20.8435 12.6553C20.8548 12.6666 20.8661 12.6779 20.8774 12.6892C22.8497 14.7095 23.9135 17.3139 23.874 20.0227C23.8345 22.7314 22.6748 25.2201 20.8182 27.0909C24.8023 26.789 28.0162 23.6795 28.0726 19.9719C28.098 18.1716 27.3785 16.425 26.041 15.0565ZM26.041 15.0565C24.6866 13.6711 22.8187 12.8105 20.8435 12.6553C20.8548 12.6666 20.8661 12.6779 20.8774 12.6892C22.8497 14.7095 23.9135 17.3139 23.874 20.0227C23.8345 22.7314 22.6748 25.2201 20.8182 27.0909C24.8023 26.789 28.0162 23.6795 28.0726 19.9719C28.098 18.1716 27.3785 16.425 26.041 15.0565ZM26.041 15.0565C24.6866 13.6711 22.8187 12.8105 20.8435 12.6553C20.8548 12.6666 20.8661 12.6779 20.8774 12.6892C22.8497 14.7095 23.9135 17.3139 23.874 20.0227C23.8345 22.7314 22.6748 25.2201 20.8182 27.0909C24.8023 26.789 28.0162 23.6795 28.0726 19.9719C28.098 18.1716 27.3785 16.425 26.041 15.0565ZM26.041 15.0565C24.6866 13.6711 22.8187 12.8105 20.8435 12.6553C20.8548 12.6666 20.8661 12.6779 20.8774 12.6892C22.8497 14.7095 23.9135 17.3139 23.874 20.0227C23.8345 22.7314 22.6748 25.2201 20.8182 27.0909C24.8023 26.789 28.0162 23.6795 28.0726 19.9719C28.098 18.1716 27.3785 16.425 26.041 15.0565Z" fill="#3D3D3D"/>
</g>
<defs>
<clipPath id="clip0_8146_16005">
<rect width="38.208" height="38.208" fill="white" transform="translate(0 0.259766)"/>
</clipPath>
</defs>
</svg>
