<svg width="39" height="40" viewBox="0 0 39 40" fill="none" xmlns="http://www.w3.org/2000/svg">
<g clip-path="url(#clip0_7886_16224)">
<path d="M26.041 15.6927C24.6866 14.3073 22.8187 13.4467 20.8435 13.2915C20.8548 13.3028 20.8661 13.3141 20.8774 13.3254C22.8497 15.3457 23.9135 17.9501 23.874 20.6589C23.8345 23.3676 22.6748 25.8563 20.8182 27.7271C24.8023 27.4252 28.0162 24.3157 28.0726 20.6081C28.098 18.8079 27.3785 17.0612 26.041 15.6927ZM26.041 15.6927C24.6866 14.3073 22.8187 13.4467 20.8435 13.2915C20.8548 13.3028 20.8661 13.3141 20.8774 13.3254C22.8497 15.3457 23.9135 17.9501 23.874 20.6589C23.8345 23.3676 22.6748 25.8563 20.8182 27.7271C24.8023 27.4252 28.0162 24.3157 28.0726 20.6081C28.098 18.8079 27.3785 17.0612 26.041 15.6927ZM26.041 15.6927C24.6866 14.3073 22.8187 13.4467 20.8435 13.2915C20.8548 13.3028 20.8661 13.3141 20.8774 13.3254C22.8497 15.3457 23.9135 17.9501 23.874 20.6589C23.8345 23.3676 22.6748 25.8563 20.8182 27.7271C24.8023 27.4252 28.0162 24.3157 28.0726 20.6081C28.098 18.8079 27.3785 17.0612 26.041 15.6927ZM26.041 15.6927C24.6866 14.3073 22.8187 13.4467 20.8435 13.2915C20.8548 13.3028 20.8661 13.3141 20.8774 13.3254C22.8497 15.3457 23.9135 17.9501 23.874 20.6589C23.8345 23.3676 22.6748 25.8563 20.8182 27.7271C24.8023 27.4252 28.0162 24.3157 28.0726 20.6081C28.098 18.8079 27.3785 17.0612 26.041 15.6927ZM26.041 15.6927C24.6866 14.3073 22.8187 13.4467 20.8435 13.2915C20.8548 13.3028 20.8661 13.3141 20.8774 13.3254C22.8497 15.3457 23.9135 17.9501 23.874 20.6589C23.8345 23.3676 22.6748 25.8563 20.8182 27.7271C24.8023 27.4252 28.0162 24.3157 28.0726 20.6081C28.098 18.8079 27.3785 17.0612 26.041 15.6927ZM26.041 15.6927C24.6866 14.3073 22.8187 13.4467 20.8435 13.2915C20.8548 13.3028 20.8661 13.3141 20.8774 13.3254C22.8497 15.3457 23.9135 17.9501 23.874 20.6589C23.8345 23.3676 22.6748 25.8563 20.8182 27.7271C24.8023 27.4252 28.0162 24.3157 28.0726 20.6081C28.098 18.8079 27.3785 17.0612 26.041 15.6927ZM26.041 15.6927C24.6866 14.3073 22.8187 13.4467 20.8435 13.2915C20.8548 13.3028 20.8661 13.3141 20.8774 13.3254C22.8497 15.3457 23.9135 17.9501 23.874 20.6589C23.8345 23.3676 22.6748 25.8563 20.8182 27.7271C24.8023 27.4252 28.0162 24.3157 28.0726 20.6081C28.098 18.8079 27.3785 17.0612 26.041 15.6927ZM26.041 15.6927C24.6866 14.3073 22.8187 13.4467 20.8435 13.2915C20.8548 13.3028 20.8661 13.3141 20.8774 13.3254C22.8497 15.3457 23.9135 17.9501 23.874 20.6589C23.8345 23.3676 22.6748 25.8563 20.8182 27.7271C24.8023 27.4252 28.0162 24.3157 28.0726 20.6081C28.098 18.8079 27.3785 17.0612 26.041 15.6927ZM35.6459 10.4501C30.3723 1.3136 18.6906 -1.81843 9.55411 3.45806C0.417601 8.73173 -2.71161 20.4134 2.56206 29.5499C7.83855 38.6864 19.5202 41.8156 28.6539 36.5419C37.7904 31.2683 40.9224 19.5838 35.6459 10.4501ZM7.65514 20.5065C7.65514 17.7272 9.90964 15.4755 12.689 15.4755C15.4683 15.4755 17.72 17.7272 17.72 20.5065C17.72 23.2858 15.4683 25.5375 12.689 25.5375C9.90964 25.5375 7.65514 23.2858 7.65514 20.5065ZM20.4457 31.1328L20.3808 28.1447C18.4056 29.9393 15.7561 31.0708 12.8611 31.1328L12.7849 27.7497C16.9751 27.6566 20.4288 24.454 20.488 20.6081C20.5134 18.8079 19.7939 17.0612 18.4564 15.6927C16.9694 14.1691 14.8616 13.2831 12.672 13.2633L12.7031 9.87732C15.4993 9.90271 18.2081 10.9383 20.2623 12.7413L20.2877 9.87732C23.3717 9.90554 26.3514 11.164 28.462 13.3254C30.4343 15.3457 31.4981 17.9501 31.4586 20.6589C31.374 26.3022 26.4332 31.0002 20.4457 31.1328ZM20.8435 13.2915C20.8435 13.2915 20.8661 13.3141 20.8774 13.3254C22.8497 15.3457 23.9135 17.9501 23.874 20.6589C23.8345 23.3676 22.6748 25.8563 20.8182 27.7271C24.8023 27.4252 28.0162 24.3157 28.0726 20.6081C28.098 18.8079 27.3785 17.0612 26.041 15.6927C24.6866 14.3073 22.8187 13.4467 20.8435 13.2915ZM26.041 15.6927C24.6866 14.3073 22.8187 13.4467 20.8435 13.2915C20.8548 13.3028 20.8661 13.3141 20.8774 13.3254C22.8497 15.3457 23.9135 17.9501 23.874 20.6589C23.8345 23.3676 22.6748 25.8563 20.8182 27.7271C24.8023 27.4252 28.0162 24.3157 28.0726 20.6081C28.098 18.8079 27.3785 17.0612 26.041 15.6927ZM26.041 15.6927C24.6866 14.3073 22.8187 13.4467 20.8435 13.2915C20.8548 13.3028 20.8661 13.3141 20.8774 13.3254C22.8497 15.3457 23.9135 17.9501 23.874 20.6589C23.8345 23.3676 22.6748 25.8563 20.8182 27.7271C24.8023 27.4252 28.0162 24.3157 28.0726 20.6081C28.098 18.8079 27.3785 17.0612 26.041 15.6927ZM26.041 15.6927C24.6866 14.3073 22.8187 13.4467 20.8435 13.2915C20.8548 13.3028 20.8661 13.3141 20.8774 13.3254C22.8497 15.3457 23.9135 17.9501 23.874 20.6589C23.8345 23.3676 22.6748 25.8563 20.8182 27.7271C24.8023 27.4252 28.0162 24.3157 28.0726 20.6081C28.098 18.8079 27.3785 17.0612 26.041 15.6927ZM26.041 15.6927C24.6866 14.3073 22.8187 13.4467 20.8435 13.2915C20.8548 13.3028 20.8661 13.3141 20.8774 13.3254C22.8497 15.3457 23.9135 17.9501 23.874 20.6589C23.8345 23.3676 22.6748 25.8563 20.8182 27.7271C24.8023 27.4252 28.0162 24.3157 28.0726 20.6081C28.098 18.8079 27.3785 17.0612 26.041 15.6927ZM26.041 15.6927C24.6866 14.3073 22.8187 13.4467 20.8435 13.2915C20.8548 13.3028 20.8661 13.3141 20.8774 13.3254C22.8497 15.3457 23.9135 17.9501 23.874 20.6589C23.8345 23.3676 22.6748 25.8563 20.8182 27.7271C24.8023 27.4252 28.0162 24.3157 28.0726 20.6081C28.098 18.8079 27.3785 17.0612 26.041 15.6927ZM26.041 15.6927C24.6866 14.3073 22.8187 13.4467 20.8435 13.2915C20.8548 13.3028 20.8661 13.3141 20.8774 13.3254C22.8497 15.3457 23.9135 17.9501 23.874 20.6589C23.8345 23.3676 22.6748 25.8563 20.8182 27.7271C24.8023 27.4252 28.0162 24.3157 28.0726 20.6081C28.098 18.8079 27.3785 17.0612 26.041 15.6927ZM26.041 15.6927C24.6866 14.3073 22.8187 13.4467 20.8435 13.2915C20.8548 13.3028 20.8661 13.3141 20.8774 13.3254C22.8497 15.3457 23.9135 17.9501 23.874 20.6589C23.8345 23.3676 22.6748 25.8563 20.8182 27.7271C24.8023 27.4252 28.0162 24.3157 28.0726 20.6081C28.098 18.8079 27.3785 17.0612 26.041 15.6927ZM26.041 15.6927C24.6866 14.3073 22.8187 13.4467 20.8435 13.2915C20.8548 13.3028 20.8661 13.3141 20.8774 13.3254C22.8497 15.3457 23.9135 17.9501 23.874 20.6589C23.8345 23.3676 22.6748 25.8563 20.8182 27.7271C24.8023 27.4252 28.0162 24.3157 28.0726 20.6081C28.098 18.8079 27.3785 17.0612 26.041 15.6927Z" fill="#57C016"/>
</g>
<defs>
<clipPath id="clip0_7886_16224">
<rect width="38.208" height="38.208" fill="white" transform="translate(0 0.895998)"/>
</clipPath>
</defs>
</svg>
