<svg width="254" height="254" viewBox="0 0 254 254" fill="none" xmlns="http://www.w3.org/2000/svg">
<circle cx="127" cy="127" r="123" stroke="url(#paint0_linear_7266_15582)" stroke-width="8"/>
<mask id="path-2-outside-1_7266_15582" maskUnits="userSpaceOnUse" x="113.971" y="74.6743" width="57" height="94" fill="black">
<rect fill="white" x="113.971" y="74.6743" width="57" height="94"/>
<path d="M140.261 88.639C145.105 80.3692 150.953 76.2343 157.805 76.2343C161.704 76.2343 164.598 77.4157 166.488 79.7785C168.378 82.0231 169.324 84.5631 169.324 87.3985C169.324 89.6432 168.733 91.4743 167.551 92.892C166.488 94.3097 164.775 95.0185 162.412 95.0185C160.522 95.0185 159.104 94.605 158.159 93.778C157.332 92.8329 156.624 91.7697 156.033 90.5883C155.56 89.4069 154.97 88.4027 154.261 87.5757C153.552 86.6306 152.37 86.158 150.717 86.158C148.59 86.158 146.582 87.4576 144.691 90.0566C142.801 92.5376 141.206 95.9045 139.907 100.158C138.725 104.411 138.135 109.254 138.135 114.689V155.801C138.135 158.282 138.489 160.054 139.198 161.118C140.025 162.181 141.679 162.831 144.16 163.067L148.944 163.599C150.244 163.835 150.894 164.485 150.894 165.548C150.894 166.965 150.008 167.674 148.236 167.674H118.287C116.515 167.674 115.629 167.025 115.629 165.725C115.629 164.662 116.397 163.953 117.933 163.599L120.059 163.244C122.54 162.772 124.135 162.063 124.844 161.118C125.671 160.054 126.084 158.282 126.084 155.801V96.259C126.084 94.1324 125.73 92.7148 125.021 92.0059C124.43 91.179 123.308 90.6473 121.654 90.4111L117.933 89.8794C116.397 89.7613 115.629 89.1115 115.629 87.9301C115.629 86.985 116.574 86.3352 118.464 85.9808C122.127 85.3901 124.903 84.445 126.793 83.1455C128.802 81.8459 130.869 80.2511 132.996 78.3608C134.059 77.2976 134.945 76.7659 135.654 76.7659C136.717 76.7659 137.249 77.4748 137.249 78.8924V88.4618C137.249 89.2887 137.603 89.8204 138.312 90.0566C139.021 90.1748 139.67 89.7022 140.261 88.639Z"/>
</mask>
<path d="M140.261 88.639C145.105 80.3692 150.953 76.2343 157.805 76.2343C161.704 76.2343 164.598 77.4157 166.488 79.7785C168.378 82.0231 169.324 84.5631 169.324 87.3985C169.324 89.6432 168.733 91.4743 167.551 92.892C166.488 94.3097 164.775 95.0185 162.412 95.0185C160.522 95.0185 159.104 94.605 158.159 93.778C157.332 92.8329 156.624 91.7697 156.033 90.5883C155.56 89.4069 154.97 88.4027 154.261 87.5757C153.552 86.6306 152.37 86.158 150.717 86.158C148.59 86.158 146.582 87.4576 144.691 90.0566C142.801 92.5376 141.206 95.9045 139.907 100.158C138.725 104.411 138.135 109.254 138.135 114.689V155.801C138.135 158.282 138.489 160.054 139.198 161.118C140.025 162.181 141.679 162.831 144.16 163.067L148.944 163.599C150.244 163.835 150.894 164.485 150.894 165.548C150.894 166.965 150.008 167.674 148.236 167.674H118.287C116.515 167.674 115.629 167.025 115.629 165.725C115.629 164.662 116.397 163.953 117.933 163.599L120.059 163.244C122.54 162.772 124.135 162.063 124.844 161.118C125.671 160.054 126.084 158.282 126.084 155.801V96.259C126.084 94.1324 125.73 92.7148 125.021 92.0059C124.43 91.179 123.308 90.6473 121.654 90.4111L117.933 89.8794C116.397 89.7613 115.629 89.1115 115.629 87.9301C115.629 86.985 116.574 86.3352 118.464 85.9808C122.127 85.3901 124.903 84.445 126.793 83.1455C128.802 81.8459 130.869 80.2511 132.996 78.3608C134.059 77.2976 134.945 76.7659 135.654 76.7659C136.717 76.7659 137.249 77.4748 137.249 78.8924V88.4618C137.249 89.2887 137.603 89.8204 138.312 90.0566C139.021 90.1748 139.67 89.7022 140.261 88.639Z" fill="#FFCD29"/>
<path d="M140.261 88.639L139.624 88.2658L139.62 88.273L139.616 88.2804L140.261 88.639ZM166.488 79.7785L165.912 80.2398L165.917 80.247L165.923 80.2541L166.488 79.7785ZM167.551 92.892L166.984 92.4193L166.972 92.4338L166.961 92.449L167.551 92.892ZM158.159 93.778L157.604 94.2643L157.636 94.3013L157.673 94.3337L158.159 93.778ZM156.033 90.5883L155.347 90.8625L155.359 90.891L155.372 90.9185L156.033 90.5883ZM154.261 87.5757L153.67 88.0187L153.684 88.038L153.7 88.0562L154.261 87.5757ZM144.691 90.0566L145.279 90.5041L145.284 90.4976L145.289 90.4909L144.691 90.0566ZM139.907 100.158L139.201 99.9418L139.198 99.9508L139.195 99.9599L139.907 100.158ZM139.198 161.118L138.584 161.527L138.599 161.55L138.615 161.571L139.198 161.118ZM144.16 163.067L144.241 162.333L144.23 162.332L144.16 163.067ZM148.944 163.598L149.077 162.872L149.051 162.867L149.026 162.865L148.944 163.598ZM117.933 163.598L117.811 162.87L117.789 162.874L117.767 162.879L117.933 163.598ZM120.059 163.244L120.181 163.972L120.189 163.971L120.197 163.969L120.059 163.244ZM124.844 161.118L124.261 160.664L124.253 160.675L124.844 161.118ZM125.021 92.0059L124.42 92.4351L124.456 92.4848L124.499 92.528L125.021 92.0059ZM121.654 90.4111L121.759 89.6801L121.654 90.4111ZM117.933 89.8794L118.037 89.1485L118.013 89.1451L117.989 89.1432L117.933 89.8794ZM118.464 85.9808L118.347 85.2519L118.338 85.2534L118.328 85.2551L118.464 85.9808ZM126.793 83.1455L126.392 82.5256L126.383 82.5312L126.375 82.537L126.793 83.1455ZM132.996 78.3608L133.486 78.9127L133.502 78.8983L133.518 78.8829L132.996 78.3608ZM138.312 90.0566L138.078 90.7571L138.133 90.7754L138.19 90.785L138.312 90.0566ZM140.898 89.0121C145.668 80.868 151.314 76.9727 157.805 76.9727V75.4959C150.592 75.4959 144.541 79.8704 139.624 88.2658L140.898 89.0121ZM157.805 76.9727C161.549 76.9727 164.2 78.1004 165.912 80.2398L167.065 79.3172C164.996 76.731 161.858 75.4959 157.805 75.4959V76.9727ZM165.923 80.2541C167.706 82.3707 168.585 84.7437 168.585 87.3985H170.062C170.062 84.3826 169.051 81.6756 167.053 79.3029L165.923 80.2541ZM168.585 87.3985C168.585 89.5092 168.032 91.1613 166.984 92.4193L168.119 93.3647C169.433 91.7873 170.062 89.7771 170.062 87.3985H168.585ZM166.961 92.449C166.081 93.6225 164.627 94.2801 162.412 94.2801V95.7569C164.924 95.7569 166.896 94.9969 168.142 93.335L166.961 92.449ZM162.412 94.2801C160.614 94.2801 159.402 93.8845 158.646 93.2224L157.673 94.3337C158.807 95.3255 160.431 95.7569 162.412 95.7569V94.2801ZM158.715 93.2918C157.932 92.3964 157.257 91.3861 156.693 90.2581L155.372 90.9185C155.99 92.1532 156.733 93.2694 157.604 94.2643L158.715 93.2918ZM156.718 90.314C156.221 89.0699 155.591 87.993 154.821 87.0952L153.7 88.0562C154.348 88.8124 154.9 89.7439 155.347 90.8625L156.718 90.314ZM154.851 87.1327C153.953 85.9346 152.504 85.4197 150.717 85.4197V86.8964C152.237 86.8964 153.151 87.3266 153.67 88.0187L154.851 87.1327ZM150.717 85.4197C148.251 85.4197 146.05 86.9337 144.094 89.6223L145.289 90.4909C147.114 87.9814 148.929 86.8964 150.717 86.8964V85.4197ZM144.104 89.6092C142.143 92.1825 140.516 95.6378 139.201 99.9418L140.613 100.373C141.897 96.1713 143.459 92.8926 145.279 90.5041L144.104 89.6092ZM139.195 99.9599C137.992 104.29 137.396 109.202 137.396 114.689H138.873C138.873 109.306 139.458 104.531 140.618 100.355L139.195 99.9599ZM137.396 114.689V155.801H138.873V114.689H137.396ZM137.396 155.801C137.396 158.313 137.748 160.273 138.584 161.527L139.812 160.708C139.231 159.835 138.873 158.252 138.873 155.801H137.396ZM138.615 161.571C139.638 162.887 141.563 163.561 144.09 163.802L144.23 162.332C141.795 162.1 140.411 161.475 139.781 160.664L138.615 161.571ZM144.078 163.801L148.863 164.332L149.026 162.865L144.241 162.333L144.078 163.801ZM148.812 164.325C149.376 164.427 149.703 164.604 149.884 164.785C150.049 164.95 150.155 165.179 150.155 165.548H151.632C151.632 164.854 151.414 164.226 150.929 163.741C150.46 163.273 149.812 163.006 149.077 162.872L148.812 164.325ZM150.155 165.548C150.155 166.094 149.993 166.386 149.768 166.566C149.511 166.771 149.043 166.936 148.236 166.936V168.413C149.201 168.413 150.061 168.223 150.69 167.719C151.352 167.19 151.632 166.42 151.632 165.548H150.155ZM148.236 166.936H118.287V168.413H148.236V166.936ZM118.287 166.936C117.47 166.936 116.99 166.782 116.73 166.592C116.513 166.432 116.367 166.188 116.367 165.725H114.891C114.891 166.561 115.188 167.292 115.857 167.782C116.483 168.242 117.333 168.413 118.287 168.413V166.936ZM116.367 165.725C116.367 165.395 116.476 165.15 116.706 164.939C116.959 164.704 117.397 164.48 118.099 164.318L117.767 162.879C116.932 163.072 116.219 163.379 115.704 163.853C115.166 164.35 114.891 164.991 114.891 165.725H116.367ZM118.054 164.327L120.181 163.972L119.938 162.516L117.811 162.87L118.054 164.327ZM120.197 163.969C121.471 163.727 122.549 163.418 123.416 163.033C124.278 162.65 124.977 162.171 125.435 161.561L124.253 160.675C124.002 161.01 123.55 161.357 122.816 161.683C122.088 162.007 121.128 162.289 119.921 162.519L120.197 163.969ZM125.427 161.571C126.41 160.307 126.823 158.326 126.823 155.801H125.346C125.346 158.239 124.932 159.801 124.261 160.664L125.427 161.571ZM126.823 155.801V96.259H125.346V155.801H126.823ZM126.823 96.259C126.823 95.1601 126.732 94.2091 126.535 93.4217C126.339 92.6389 126.026 91.9666 125.543 91.4838L124.499 92.528C124.725 92.7541 124.944 93.1451 125.102 93.7799C125.26 94.4102 125.346 95.2313 125.346 96.259H126.823ZM125.622 91.5768C124.857 90.5062 123.489 89.9273 121.759 89.6801L121.55 91.142C123.127 91.3674 124.004 91.8517 124.42 92.4351L125.622 91.5768ZM121.759 89.6801L118.037 89.1485L117.828 90.6104L121.55 91.142L121.759 89.6801ZM117.989 89.1432C117.299 89.0901 116.9 88.924 116.682 88.7398C116.493 88.5803 116.367 88.3456 116.367 87.9301H114.891C114.891 88.696 115.149 89.377 115.728 89.8672C116.278 90.3328 117.031 90.5506 117.876 90.6156L117.989 89.1432ZM116.367 87.9301C116.367 87.7544 116.435 87.563 116.756 87.3424C117.105 87.1025 117.697 86.8759 118.601 86.7066L118.328 85.2551C117.342 85.4401 116.516 85.7157 115.92 86.1255C115.295 86.5547 114.891 87.1608 114.891 87.9301H116.367ZM118.582 86.7098C122.293 86.1112 125.192 85.1421 127.212 83.7539L126.375 82.537C124.614 83.7479 121.96 84.6691 118.347 85.2519L118.582 86.7098ZM127.194 83.7654C129.239 82.4421 131.337 80.8233 133.486 78.9127L132.505 77.809C130.401 79.6788 128.364 81.2498 126.392 82.5256L127.194 83.7654ZM133.518 78.8829C134.024 78.3765 134.464 78.022 134.837 77.7978C135.215 77.5713 135.481 77.5043 135.654 77.5043V76.0276C135.118 76.0276 134.586 76.2264 134.078 76.5315C133.565 76.839 133.03 77.2819 132.473 77.8387L133.518 78.8829ZM135.654 77.5043C136.005 77.5043 136.161 77.6103 136.259 77.7406C136.387 77.9109 136.51 78.2546 136.51 78.8924H137.987C137.987 78.1126 137.845 77.3931 137.441 76.8545C137.007 76.276 136.366 76.0276 135.654 76.0276V77.5043ZM136.51 78.8924V88.4618H137.987V78.8924H136.51ZM136.51 88.4618C136.51 88.9785 136.621 89.4721 136.9 89.8903C137.183 90.315 137.596 90.5962 138.078 90.7571L138.545 89.3562C138.319 89.2808 138.2 89.178 138.129 89.0711C138.053 88.9577 137.987 88.7719 137.987 88.4618H136.51ZM138.19 90.785C139.393 90.9853 140.282 90.1218 140.907 88.9976L139.616 88.2804C139.059 89.2827 138.649 89.3643 138.433 89.3283L138.19 90.785Z" fill="url(#paint1_linear_7266_15582)" mask="url(#path-2-outside-1_7266_15582)"/>
<mask id="path-4-outside-2_7266_15582" maskUnits="userSpaceOnUse" x="161.581" y="147.965" width="21" height="21" fill="black">
<rect fill="white" x="161.581" y="147.965" width="21" height="21"/>
<path d="M172.543 167.56C169.944 167.56 167.699 166.733 165.809 165.079C164.037 163.307 163.151 161.003 163.151 158.168C163.151 155.451 164.037 153.265 165.809 151.611C167.699 149.839 169.944 148.953 172.543 148.953C174.905 148.953 177.032 149.839 178.922 151.611C180.812 153.265 181.758 155.451 181.758 158.168C181.758 161.003 180.812 163.307 178.922 165.079C177.032 166.733 174.905 167.56 172.543 167.56Z"/>
</mask>
<path d="M172.543 167.56C169.944 167.56 167.699 166.733 165.809 165.079C164.037 163.307 163.151 161.003 163.151 158.168C163.151 155.451 164.037 153.265 165.809 151.611C167.699 149.839 169.944 148.953 172.543 148.953C174.905 148.953 177.032 149.839 178.922 151.611C180.812 153.265 181.758 155.451 181.758 158.168C181.758 161.003 180.812 163.307 178.922 165.079C177.032 166.733 174.905 167.56 172.543 167.56Z" fill="url(#paint2_linear_7266_15582)"/>
<path d="M165.809 165.079L165.287 165.601L165.304 165.619L165.323 165.635L165.809 165.079ZM165.809 151.611L166.313 152.151L166.314 152.15L165.809 151.611ZM178.922 151.611L178.417 152.15L178.426 152.159L178.436 152.167L178.922 151.611ZM178.922 165.079L179.408 165.635L179.418 165.627L179.427 165.618L178.922 165.079ZM172.543 166.822C170.116 166.822 168.046 166.055 166.295 164.524L165.323 165.635C167.352 167.411 169.772 168.299 172.543 168.299V166.822ZM166.331 164.557C164.716 162.942 163.889 160.836 163.889 158.168H162.412C162.412 161.171 163.357 163.672 165.287 165.601L166.331 164.557ZM163.889 158.168C163.889 155.628 164.709 153.648 166.313 152.151L165.305 151.072C163.364 152.883 162.412 155.274 162.412 158.168H163.889ZM166.314 152.15C168.067 150.507 170.131 149.692 172.543 149.692V148.215C169.757 148.215 167.331 149.172 165.304 151.073L166.314 152.15ZM172.543 149.692C174.699 149.692 176.649 150.493 178.417 152.15L179.427 151.073C177.415 149.186 175.112 148.215 172.543 148.215V149.692ZM178.436 152.167C180.152 153.668 181.019 155.644 181.019 158.168H182.496C182.496 155.258 181.473 152.862 179.408 151.056L178.436 152.167ZM181.019 158.168C181.019 160.821 180.144 162.922 178.417 164.541L179.427 165.618C181.481 163.692 182.496 161.186 182.496 158.168H181.019ZM178.436 164.524C176.671 166.068 174.715 166.822 172.543 166.822V168.299C175.096 168.299 177.393 167.399 179.408 165.635L178.436 164.524Z" fill="url(#paint3_linear_7266_15582)" mask="url(#path-4-outside-2_7266_15582)"/>
<mask id="path-6-outside-3_7266_15582" maskUnits="userSpaceOnUse" x="78.0859" y="82.0261" width="45" height="75" fill="black">
<rect fill="white" x="78.0859" y="82.0261" width="45" height="75"/>
<path d="M98.9181 92.7978C102.793 86.182 107.471 82.8741 112.953 82.8741C116.072 82.8741 118.388 83.8192 119.9 85.7095C121.412 87.5052 122.168 89.5372 122.168 91.8055C122.168 93.6012 121.695 95.0661 120.75 96.2003C119.9 97.3344 118.529 97.9015 116.639 97.9015C115.127 97.9015 113.993 97.5707 113.237 96.9091C112.575 96.153 112.008 95.3024 111.535 94.3573C111.157 93.4122 110.685 92.6088 110.118 91.9472C109.551 91.1911 108.606 90.8131 107.282 90.8131C105.581 90.8131 103.974 91.8527 102.462 93.932C100.95 95.9167 99.6742 98.6103 98.6346 102.013C97.6895 105.415 97.2169 109.29 97.2169 113.638V146.528C97.2169 148.512 97.5005 149.93 98.0675 150.781C98.7291 151.631 100.052 152.151 102.037 152.34L105.865 152.765C106.904 152.954 107.424 153.474 107.424 154.325C107.424 155.459 106.715 156.026 105.298 156.026H81.339C79.9213 156.026 79.2124 155.506 79.2124 154.467C79.2124 153.616 79.8268 153.049 81.0554 152.765L82.7566 152.482C84.7414 152.104 86.0173 151.537 86.5844 150.781C87.2459 149.93 87.5767 148.512 87.5767 146.528V98.8938C87.5767 97.1926 87.2932 96.0585 86.7261 95.4914C86.2536 94.8298 85.3557 94.4045 84.0325 94.2155L81.0554 93.7902C79.8268 93.6957 79.2124 93.1759 79.2124 92.2308C79.2124 91.4747 79.9685 90.9549 81.4807 90.6713C84.4106 90.1988 86.6316 89.4427 88.1438 88.403C89.7505 87.3634 91.4045 86.0875 93.1057 84.5753C93.9563 83.7247 94.6651 83.2994 95.2322 83.2994C96.0828 83.2994 96.5081 83.8665 96.5081 85.0006V92.6561C96.5081 93.3176 96.7916 93.743 97.3587 93.932C97.9258 94.0265 98.4456 93.6484 98.9181 92.7978Z"/>
</mask>
<path d="M98.9181 92.7978C102.793 86.182 107.471 82.8741 112.953 82.8741C116.072 82.8741 118.388 83.8192 119.9 85.7095C121.412 87.5052 122.168 89.5372 122.168 91.8055C122.168 93.6012 121.695 95.0661 120.75 96.2003C119.9 97.3344 118.529 97.9015 116.639 97.9015C115.127 97.9015 113.993 97.5707 113.237 96.9091C112.575 96.153 112.008 95.3024 111.535 94.3573C111.157 93.4122 110.685 92.6088 110.118 91.9472C109.551 91.1911 108.606 90.8131 107.282 90.8131C105.581 90.8131 103.974 91.8527 102.462 93.932C100.95 95.9167 99.6742 98.6103 98.6346 102.013C97.6895 105.415 97.2169 109.29 97.2169 113.638V146.528C97.2169 148.512 97.5005 149.93 98.0675 150.781C98.7291 151.631 100.052 152.151 102.037 152.34L105.865 152.765C106.904 152.954 107.424 153.474 107.424 154.325C107.424 155.459 106.715 156.026 105.298 156.026H81.339C79.9213 156.026 79.2124 155.506 79.2124 154.467C79.2124 153.616 79.8268 153.049 81.0554 152.765L82.7566 152.482C84.7414 152.104 86.0173 151.537 86.5844 150.781C87.2459 149.93 87.5767 148.512 87.5767 146.528V98.8938C87.5767 97.1926 87.2932 96.0585 86.7261 95.4914C86.2536 94.8298 85.3557 94.4045 84.0325 94.2155L81.0554 93.7902C79.8268 93.6957 79.2124 93.1759 79.2124 92.2308C79.2124 91.4747 79.9685 90.9549 81.4807 90.6713C84.4106 90.1988 86.6316 89.4427 88.1438 88.403C89.7505 87.3634 91.4045 86.0875 93.1057 84.5753C93.9563 83.7247 94.6651 83.2994 95.2322 83.2994C96.0828 83.2994 96.5081 83.8665 96.5081 85.0006V92.6561C96.5081 93.3176 96.7916 93.743 97.3587 93.932C97.9258 94.0265 98.4456 93.6484 98.9181 92.7978Z" fill="#FF3E3E"/>
<path d="M98.9181 92.7978L98.4083 92.4992L98.4018 92.511L98.9181 92.7978ZM119.9 85.7095L119.438 86.0785L119.443 86.0843L119.448 86.09L119.9 85.7095ZM120.75 96.2003L120.297 95.8221L120.287 95.8337L120.278 95.8458L120.75 96.2003ZM113.237 96.9091L112.792 97.2981L112.818 97.3277L112.848 97.3536L113.237 96.9091ZM111.535 94.3573L110.987 94.5767L110.996 94.5995L111.007 94.6214L111.535 94.3573ZM110.118 91.9472L109.645 92.3016L109.657 92.317L109.669 92.3316L110.118 91.9472ZM102.462 93.932L102.932 94.2901L102.94 94.2794L102.462 93.932ZM98.6346 102.013L98.0697 101.84L98.0675 101.847L98.0654 101.855L98.6346 102.013ZM98.0675 150.781L97.576 151.108L97.588 151.126L97.6013 151.143L98.0675 150.781ZM102.037 152.34L102.102 151.753L102.093 151.752L102.037 152.34ZM105.865 152.765L105.97 152.184L105.95 152.181L105.93 152.178L105.865 152.765ZM81.0554 152.765L80.9583 152.183L80.9404 152.186L80.9226 152.19L81.0554 152.765ZM82.7566 152.482L82.8538 153.065L82.8672 153.062L82.7566 152.482ZM86.5844 150.781L86.118 150.418L86.1118 150.426L86.5844 150.781ZM86.7261 95.4914L86.2455 95.8348L86.2739 95.8745L86.3084 95.9091L86.7261 95.4914ZM84.0325 94.2155L84.1161 93.6307H84.1161L84.0325 94.2155ZM81.0554 93.7902L81.139 93.2054L81.1199 93.2027L81.1007 93.2013L81.0554 93.7902ZM81.4807 90.6713L81.3867 90.0882L81.3793 90.0894L81.3719 90.0907L81.4807 90.6713ZM88.1438 88.403L87.8229 87.9071L87.816 87.9116L87.8092 87.9163L88.1438 88.403ZM93.1057 84.5753L93.4981 85.0168L93.5111 85.0053L93.5233 84.993L93.1057 84.5753ZM97.3587 93.932L97.1719 94.4924L97.2159 94.507L97.2616 94.5146L97.3587 93.932ZM99.4278 93.0964C103.244 86.5811 107.76 83.4648 112.953 83.4648V82.2834C107.183 82.2834 102.342 85.783 98.4084 92.4993L99.4278 93.0964ZM112.953 83.4648C115.949 83.4648 118.069 84.367 119.438 86.0785L120.361 85.3405C118.706 83.2714 116.195 82.2834 112.953 82.2834V83.4648ZM119.448 86.09C120.874 87.7832 121.577 89.6816 121.577 91.8055H122.759C122.759 89.3927 121.95 87.2271 120.352 85.329L119.448 86.09ZM121.577 91.8055C121.577 93.494 121.135 94.8157 120.297 95.8221L121.204 96.5784C122.256 95.3165 122.759 93.7083 122.759 91.8055H121.577ZM120.278 95.8458C119.574 96.7846 118.411 97.3108 116.639 97.3108V98.4922C118.648 98.4922 120.226 97.8842 121.223 96.5547L120.278 95.8458ZM116.639 97.3108C115.2 97.3108 114.231 96.9943 113.626 96.4645L112.848 97.3536C113.754 98.1471 115.054 98.4922 116.639 98.4922V97.3108ZM113.681 96.5201C113.054 95.8038 112.515 94.9956 112.064 94.0931L111.007 94.6214C111.501 95.6092 112.096 96.5022 112.792 97.2981L113.681 96.5201ZM112.084 94.1379C111.686 93.1425 111.182 92.281 110.566 91.5628L109.669 92.3316C110.188 92.9366 110.629 93.6818 110.987 94.5767L112.084 94.1379ZM110.59 91.5928C109.871 90.6343 108.712 90.2224 107.282 90.2224V91.4038C108.499 91.4038 109.23 91.7479 109.645 92.3016L110.59 91.5928ZM107.282 90.2224C105.31 90.2224 103.549 91.4336 101.985 93.5845L102.94 94.2794C104.4 92.2718 105.852 91.4038 107.282 91.4038V90.2224ZM101.992 93.574C100.424 95.6327 99.1218 98.3969 98.0697 101.84L99.1995 102.185C100.227 98.8237 101.476 96.2008 102.932 94.29L101.992 93.574ZM98.0654 101.855C97.1032 105.319 96.6262 109.248 96.6262 113.638H97.8076C97.8076 109.332 98.2758 105.511 99.2037 102.171L98.0654 101.855ZM96.6262 113.638V146.528H97.8076V113.638H96.6262ZM96.6262 146.528C96.6262 148.537 96.9073 150.105 97.576 151.108L98.559 150.453C98.0936 149.755 97.8076 148.488 97.8076 146.528H96.6262ZM97.6013 151.143C98.42 152.196 99.9595 152.736 101.981 152.928L102.093 151.752C100.145 151.567 99.0382 151.067 98.5338 150.418L97.6013 151.143ZM101.972 152.927L105.8 153.353L105.93 152.178L102.102 151.753L101.972 152.927ZM105.759 153.347C106.21 153.429 106.471 153.57 106.617 153.715C106.748 153.846 106.833 154.03 106.833 154.325H108.015C108.015 153.77 107.84 153.268 107.452 152.879C107.077 152.505 106.559 152.291 105.97 152.184L105.759 153.347ZM106.833 154.325C106.833 154.762 106.704 154.996 106.524 155.14C106.318 155.304 105.943 155.435 105.298 155.435V156.617C106.07 156.617 106.758 156.465 107.262 156.062C107.79 155.639 108.015 155.022 108.015 154.325H106.833ZM105.298 155.435H81.339V156.617H105.298V155.435ZM81.339 155.435C80.6849 155.435 80.3013 155.312 80.0934 155.16C79.9196 155.032 79.8031 154.837 79.8031 154.467H78.6218C78.6218 155.136 78.8597 155.72 79.3948 156.113C79.8957 156.48 80.5754 156.617 81.339 156.617V155.435ZM79.8031 154.467C79.8031 154.203 79.8902 154.007 80.0739 153.837C80.2767 153.65 80.6271 153.471 81.1883 153.341L80.9226 152.19C80.2551 152.344 79.684 152.59 79.2725 152.969C78.8419 153.367 78.6218 153.88 78.6218 154.467H79.8031ZM81.1525 153.348L82.8537 153.065L82.6595 151.899L80.9583 152.183L81.1525 153.348ZM82.8672 153.062C83.8861 152.868 84.7488 152.621 85.442 152.313C86.1313 152.007 86.6908 151.623 87.0569 151.135L86.1118 150.426C85.9108 150.694 85.5489 150.973 84.9622 151.233C84.3796 151.492 83.6119 151.718 82.6461 151.902L82.8672 153.062ZM87.0506 151.143C87.8369 150.132 88.1674 148.547 88.1674 146.528H86.986C86.986 148.478 86.655 149.728 86.1181 150.418L87.0506 151.143ZM88.1674 146.528V98.8938H86.986V146.528H88.1674ZM88.1674 98.8938C88.1674 98.0147 88.0946 97.2539 87.9371 96.6241C87.7806 95.9978 87.5301 95.46 87.1438 95.0737L86.3084 95.9091C86.4893 96.0899 86.6641 96.4027 86.791 96.9106C86.9171 97.4149 86.986 98.0717 86.986 98.8938H88.1674ZM87.2068 95.1481C86.5951 94.2917 85.5005 93.8285 84.1161 93.6307L83.949 94.8003C85.211 94.9805 85.9121 95.368 86.2455 95.8348L87.2068 95.1481ZM84.1161 93.6307L81.139 93.2054L80.9719 94.375L83.949 94.8003L84.1161 93.6307ZM81.1007 93.2013C80.5485 93.1588 80.2288 93.0258 80.0548 92.8785C79.9039 92.7509 79.8031 92.5631 79.8031 92.2308H78.6218C78.6218 92.8435 78.8282 93.3882 79.2916 93.7804C79.7319 94.1529 80.3337 94.3271 81.0101 94.3792L81.1007 93.2013ZM79.8031 92.2308C79.8031 92.0902 79.8575 91.9371 80.1142 91.7606C80.3934 91.5686 80.8669 91.3874 81.5896 91.2519L81.3719 90.0907C80.5824 90.2388 79.9218 90.4592 79.4449 90.7871C78.9455 91.1304 78.6218 91.6153 78.6218 92.2308H79.8031ZM81.5748 91.2545C84.5438 90.7756 86.8631 90.0003 88.4784 88.8898L87.8092 87.9163C86.4001 88.885 84.2774 89.6219 81.3867 90.0882L81.5748 91.2545ZM88.4647 88.899C90.1008 87.8403 91.7785 86.5453 93.4981 85.0168L92.7132 84.1338C91.0304 85.6297 89.4002 86.8865 87.8229 87.9071L88.4647 88.899ZM93.5233 84.993C93.9285 84.5879 94.2802 84.3043 94.5792 84.1249C94.8812 83.9437 95.0939 83.8901 95.2322 83.8901V82.7087C94.8034 82.7087 94.3781 82.8678 93.9713 83.1119C93.5614 83.3578 93.1334 83.7122 92.688 84.1576L93.5233 84.993ZM95.2322 83.8901C95.5133 83.8901 95.6384 83.9749 95.7165 84.0791C95.8187 84.2154 95.9174 84.4904 95.9174 85.0006H97.0988C97.0988 84.3768 96.9848 83.8012 96.6617 83.3703C96.3146 82.9075 95.8016 82.7087 95.2322 82.7087V83.8901ZM95.9174 85.0006V92.6561H97.0988V85.0006H95.9174ZM95.9174 92.6561C95.9174 93.0695 96.0062 93.4643 96.2292 93.7989C96.4558 94.1387 96.7857 94.3636 97.1719 94.4924L97.5455 93.3716C97.3646 93.3113 97.2692 93.2291 97.2122 93.1436C97.1517 93.0528 97.0988 92.9042 97.0988 92.6561H95.9174ZM97.2616 94.5146C98.2232 94.6749 98.9348 93.9841 99.4345 93.0847L98.4018 92.511C97.9563 93.3128 97.6283 93.3781 97.4558 93.3493L97.2616 94.5146Z" fill="url(#paint4_linear_7266_15582)" mask="url(#path-6-outside-3_7266_15582)"/>
<mask id="path-8-outside-4_7266_15582" maskUnits="userSpaceOnUse" x="53.2766" y="87.3779" width="34" height="57" fill="black">
<rect fill="white" x="53.2766" y="87.3779" width="34" height="57"/>
<path d="M68.6508 95.9567C71.557 90.9949 75.0657 88.5139 79.177 88.5139C81.5161 88.5139 83.2528 89.2228 84.3869 90.6404C85.5211 91.9872 86.0881 93.5112 86.0881 95.2124C86.0881 96.5592 85.7337 97.6579 85.0249 98.5085C84.3869 99.3591 83.3591 99.7844 81.9415 99.7844C80.8073 99.7844 79.9567 99.5363 79.3896 99.0402C78.8935 98.4731 78.4681 97.8351 78.1137 97.1263C77.8302 96.4175 77.4758 95.8149 77.0505 95.3188C76.6252 94.7517 75.9163 94.4682 74.924 94.4682C73.6481 94.4682 72.443 95.2479 71.3089 96.8073C70.1748 98.2959 69.2178 100.316 68.4381 102.868C67.7293 105.42 67.3748 108.326 67.3748 111.587V136.254C67.3748 137.743 67.5875 138.806 68.0128 139.444C68.509 140.082 69.5014 140.472 70.9899 140.613L73.8607 140.932C74.6404 141.074 75.0303 141.464 75.0303 142.102C75.0303 142.953 74.4987 143.378 73.4354 143.378H55.4664C54.4031 143.378 53.8715 142.988 53.8715 142.208C53.8715 141.57 54.3322 141.145 55.2537 140.932L56.5296 140.72C58.0182 140.436 58.9751 140.011 59.4004 139.444C59.8966 138.806 60.1447 137.743 60.1447 136.254V100.529C60.1447 99.2528 59.9321 98.4022 59.5068 97.9769C59.1523 97.4807 58.4789 97.1617 57.4866 97.02L55.2537 96.701C54.3322 96.6301 53.8715 96.2403 53.8715 95.5314C53.8715 94.9643 54.4386 94.5745 55.5727 94.3618C57.7701 94.0074 59.4359 93.4403 60.57 92.6606C61.775 91.8809 63.0155 90.924 64.2914 89.7898C64.9294 89.1519 65.461 88.8329 65.8863 88.8329C66.5242 88.8329 66.8432 89.2582 66.8432 90.1088V95.8504C66.8432 96.3466 67.0559 96.6656 67.4812 96.8073C67.9065 96.8782 68.2963 96.5947 68.6508 95.9567Z"/>
</mask>
<path d="M68.6508 95.9567C71.557 90.9949 75.0657 88.5139 79.177 88.5139C81.5161 88.5139 83.2528 89.2228 84.3869 90.6404C85.5211 91.9872 86.0881 93.5112 86.0881 95.2124C86.0881 96.5592 85.7337 97.6579 85.0249 98.5085C84.3869 99.3591 83.3591 99.7844 81.9415 99.7844C80.8073 99.7844 79.9567 99.5363 79.3896 99.0402C78.8935 98.4731 78.4681 97.8351 78.1137 97.1263C77.8302 96.4175 77.4758 95.8149 77.0505 95.3188C76.6252 94.7517 75.9163 94.4682 74.924 94.4682C73.6481 94.4682 72.443 95.2479 71.3089 96.8073C70.1748 98.2959 69.2178 100.316 68.4381 102.868C67.7293 105.42 67.3748 108.326 67.3748 111.587V136.254C67.3748 137.743 67.5875 138.806 68.0128 139.444C68.509 140.082 69.5014 140.472 70.9899 140.613L73.8607 140.932C74.6404 141.074 75.0303 141.464 75.0303 142.102C75.0303 142.953 74.4987 143.378 73.4354 143.378H55.4664C54.4031 143.378 53.8715 142.988 53.8715 142.208C53.8715 141.57 54.3322 141.145 55.2537 140.932L56.5296 140.72C58.0182 140.436 58.9751 140.011 59.4004 139.444C59.8966 138.806 60.1447 137.743 60.1447 136.254V100.529C60.1447 99.2528 59.9321 98.4022 59.5068 97.9769C59.1523 97.4807 58.4789 97.1617 57.4866 97.02L55.2537 96.701C54.3322 96.6301 53.8715 96.2403 53.8715 95.5314C53.8715 94.9643 54.4386 94.5745 55.5727 94.3618C57.7701 94.0074 59.4359 93.4403 60.57 92.6606C61.775 91.8809 63.0155 90.924 64.2914 89.7898C64.9294 89.1519 65.461 88.8329 65.8863 88.8329C66.5242 88.8329 66.8432 89.2582 66.8432 90.1088V95.8504C66.8432 96.3466 67.0559 96.6656 67.4812 96.8073C67.9065 96.8782 68.2963 96.5947 68.6508 95.9567Z" fill="#408415"/>
<path d="M68.6508 95.9567L68.2684 95.7328L68.2635 95.7416L68.6508 95.9567ZM84.3869 90.6404L84.0409 90.9173L84.0481 90.9258L84.3869 90.6404ZM85.0249 98.5085L84.6846 98.2249L84.6773 98.2336L84.6705 98.2427L85.0249 98.5085ZM79.3896 99.0402L79.0562 99.3319L79.0757 99.3541L79.0979 99.3736L79.3896 99.0402ZM78.1137 97.1263L77.7024 97.2908L77.7092 97.3079L77.7175 97.3244L78.1137 97.1263ZM77.0505 95.3188L76.6961 95.5846L76.7047 95.5961L76.7141 95.6071L77.0505 95.3188ZM71.3089 96.8073L71.6614 97.0759L71.6672 97.0679L71.3089 96.8073ZM68.4381 102.868L68.0143 102.738L68.0112 102.749L68.4381 102.868ZM68.0128 139.444L67.6442 139.69L67.6532 139.703L67.6631 139.716L68.0128 139.444ZM70.9899 140.613L71.0388 140.173L71.0319 140.172L70.9899 140.613ZM73.8607 140.932L73.94 140.497L73.9249 140.494L73.9096 140.492L73.8607 140.932ZM55.2537 140.932L55.1809 140.495L55.1674 140.498L55.1541 140.501L55.2537 140.932ZM56.5296 140.72L56.6025 141.157L56.6125 141.155L56.5296 140.72ZM59.4004 139.444L59.0507 139.172L59.046 139.178L59.4004 139.444ZM59.5068 97.9769L59.1462 98.2344L59.1676 98.2642L59.1935 98.2902L59.5068 97.9769ZM57.4866 97.02L57.5492 96.5814L57.4866 97.02ZM55.2537 96.701L55.3164 96.2624L55.3021 96.2604L55.2877 96.2593L55.2537 96.701ZM55.5727 94.3618L55.5021 93.9243L55.4911 93.9264L55.5727 94.3618ZM60.57 92.6606L60.3292 92.2885L60.319 92.2956L60.57 92.6606ZM64.2914 89.7898L64.5857 90.121L64.5955 90.1123L64.6047 90.1031L64.2914 89.7898ZM67.4812 96.8073L67.3411 97.2276L67.3741 97.2386L67.4083 97.2443L67.4812 96.8073ZM69.033 96.1806C71.8951 91.2941 75.2822 88.9569 79.177 88.9569V88.0709C74.8492 88.0709 71.2189 90.6956 68.2685 95.7328L69.033 96.1806ZM79.177 88.9569C81.4237 88.9569 83.0141 89.6336 84.041 90.9172L84.7329 90.3637C83.4915 88.8119 81.6086 88.0709 79.177 88.0709V88.9569ZM84.0481 90.9258C85.1175 92.1958 85.6451 93.6196 85.6451 95.2124H86.5312C86.5312 93.4029 85.9247 91.7787 84.7258 90.3551L84.0481 90.9258ZM85.6451 95.2124C85.6451 96.4789 85.3135 97.4701 84.6846 98.2249L85.3652 98.7921C86.1539 97.8457 86.5312 96.6396 86.5312 95.2124H85.6451ZM84.6705 98.2427C84.1424 98.9468 83.2701 99.3414 81.9415 99.3414V100.227C83.4482 100.227 84.6315 99.7715 85.3793 98.7743L84.6705 98.2427ZM81.9415 99.3414C80.8621 99.3414 80.1354 99.104 79.6814 98.7067L79.0979 99.3736C79.778 99.9687 80.7525 100.227 81.9415 100.227V99.3414ZM79.723 98.7484C79.253 98.2112 78.8484 97.605 78.51 96.9282L77.7175 97.3244C78.0879 98.0653 78.5339 98.735 79.0562 99.3319L79.723 98.7484ZM78.5251 96.9618C78.2265 96.2153 77.8486 95.5691 77.3868 95.0304L76.7141 95.6071C77.103 96.0608 77.4339 96.6197 77.7024 97.2908L78.5251 96.9618ZM77.4049 95.0529C76.8658 94.3341 75.9964 94.0251 74.924 94.0251V94.9112C75.8363 94.9112 76.3846 95.1693 76.6961 95.5846L77.4049 95.0529ZM74.924 94.0251C73.4449 94.0251 72.1238 94.9336 70.9506 96.5467L71.6672 97.0679C72.7622 95.5622 73.8512 94.9112 74.924 94.9112V94.0251ZM70.9565 96.5388C69.7801 98.0828 68.8035 100.156 68.0144 102.738L68.8618 102.997C69.6322 100.476 70.5694 98.5089 71.6613 97.0758L70.9565 96.5388ZM68.0112 102.749C67.2895 105.347 66.9318 108.295 66.9318 111.587H67.8179C67.8179 108.357 68.169 105.492 68.865 102.986L68.0112 102.749ZM66.9318 111.587V136.254H67.8179V111.587H66.9318ZM66.9318 136.254C66.9318 137.761 67.1426 138.937 67.6442 139.69L68.3814 139.198C68.0324 138.675 67.8179 137.724 67.8179 136.254H66.9318ZM67.6631 139.716C68.2771 140.505 69.4318 140.91 70.9479 141.054L71.0319 140.172C69.5709 140.033 68.7408 139.658 68.3625 139.172L67.6631 139.716ZM70.941 141.054L73.8118 141.373L73.9096 140.492L71.0388 140.173L70.941 141.054ZM73.7815 141.368C74.1198 141.43 74.3157 141.536 74.4246 141.644C74.5233 141.743 74.5873 141.881 74.5873 142.102H75.4733C75.4733 141.686 75.3423 141.309 75.0512 141.018C74.7702 140.737 74.3813 140.577 73.94 140.497L73.7815 141.368ZM74.5873 142.102C74.5873 142.43 74.4898 142.605 74.3548 142.713C74.2009 142.836 73.9197 142.935 73.4354 142.935V143.821C74.0144 143.821 74.5306 143.707 74.9083 143.405C75.305 143.088 75.4733 142.625 75.4733 142.102H74.5873ZM73.4354 142.935H55.4664V143.821H73.4354V142.935ZM55.4664 142.935C54.9758 142.935 54.6882 142.843 54.5322 142.728C54.4019 142.633 54.3145 142.486 54.3145 142.208H53.4285C53.4285 142.71 53.6069 143.149 54.0082 143.443C54.3839 143.718 54.8937 143.821 55.4664 143.821V142.935ZM54.3145 142.208C54.3145 142.011 54.3798 141.864 54.5175 141.736C54.6697 141.596 54.9324 141.461 55.3533 141.364L55.1541 140.501C54.6535 140.616 54.2252 140.8 53.9166 141.085C53.5935 141.384 53.4285 141.768 53.4285 142.208H54.3145ZM55.3266 141.369L56.6025 141.157L56.4568 140.283L55.1809 140.495L55.3266 141.369ZM56.6125 141.155C57.3768 141.009 58.0237 140.824 58.5437 140.593C59.0606 140.363 59.4803 140.076 59.7548 139.71L59.046 139.178C58.8953 139.379 58.6238 139.588 58.1838 139.783C57.7468 139.978 57.1711 140.147 56.4467 140.285L56.6125 141.155ZM59.7501 139.716C60.3398 138.958 60.5877 137.769 60.5877 136.254H59.7017C59.7017 137.717 59.4534 138.654 59.0507 139.172L59.7501 139.716ZM60.5877 136.254V100.529H59.7017V136.254H60.5877ZM60.5877 100.529C60.5877 99.8694 60.5331 99.2988 60.415 98.8264C60.2976 98.3567 60.1097 97.9533 59.82 97.6636L59.1935 98.2902C59.3291 98.4258 59.4602 98.6604 59.5554 99.0413C59.65 99.4195 59.7017 99.9121 59.7017 100.529H60.5877ZM59.8673 97.7194C59.4085 97.0771 58.5875 96.7297 57.5492 96.5814L57.4239 97.4585C58.3704 97.5938 58.8962 97.8844 59.1462 98.2344L59.8673 97.7194ZM57.5492 96.5814L55.3164 96.2624L55.1911 97.1396L57.4239 97.4585L57.5492 96.5814ZM55.2877 96.2593C54.8735 96.2274 54.6338 96.1277 54.5032 96.0172C54.3901 95.9215 54.3145 95.7807 54.3145 95.5314H53.4285C53.4285 95.991 53.5833 96.3995 53.9309 96.6936C54.2611 96.973 54.7125 97.1037 55.2197 97.1427L55.2877 96.2593ZM54.3145 95.5314C54.3145 95.426 54.3552 95.3112 54.5478 95.1788C54.7572 95.0348 55.1123 94.8989 55.6543 94.7973L55.4911 93.9264C54.899 94.0374 54.4035 94.2027 54.0458 94.4486C53.6713 94.7061 53.4285 95.0698 53.4285 95.5314H54.3145ZM55.6432 94.7992C57.87 94.44 59.6095 93.8586 60.821 93.0257L60.319 92.2956C59.2622 93.0221 57.6702 93.5748 55.5022 93.9245L55.6432 94.7992ZM60.8107 93.0326C62.0377 92.2386 63.2961 91.2673 64.5857 90.121L63.9971 89.4587C62.7349 90.5806 61.5123 91.5232 60.3293 92.2887L60.8107 93.0326ZM64.6047 90.1031C64.9085 89.7992 65.1723 89.5865 65.3965 89.452C65.6231 89.3161 65.7826 89.2759 65.8863 89.2759V88.3899C65.5647 88.3899 65.2457 88.5092 64.9407 88.6922C64.6332 88.8767 64.3122 89.1425 63.9781 89.4766L64.6047 90.1031ZM65.8863 89.2759C66.0972 89.2759 66.1909 89.3395 66.2496 89.4177C66.3262 89.5199 66.4002 89.7261 66.4002 90.1088H67.2862C67.2862 89.6409 67.2008 89.2092 66.9584 88.8861C66.6981 88.539 66.3134 88.3899 65.8863 88.3899V89.2759ZM66.4002 90.1088V95.8504H67.2862V90.1088H66.4002ZM66.4002 95.8504C66.4002 96.1605 66.4668 96.4566 66.6341 96.7075C66.804 96.9623 67.0514 97.1311 67.3411 97.2276L67.6213 96.387C67.4856 96.3418 67.4141 96.2802 67.3713 96.216C67.3259 96.148 67.2862 96.0365 67.2862 95.8504H66.4002ZM67.4083 97.2443C68.1296 97.3645 68.6633 96.8464 69.038 96.1719L68.2635 95.7416C67.9294 96.3429 67.6834 96.3919 67.554 96.3703L67.4083 97.2443Z" fill="url(#paint5_linear_7266_15582)" mask="url(#path-8-outside-4_7266_15582)"/>
<defs>
<linearGradient id="paint0_linear_7266_15582" x1="0" y1="127" x2="254" y2="127" gradientUnits="userSpaceOnUse">
<stop offset="0.145" stop-color="#408415"/>
<stop offset="0.57" stop-color="#FB5F51"/>
<stop offset="0.72" stop-color="#FFCD29"/>
<stop offset="1" stop-color="#C2F31F"/>
</linearGradient>
<linearGradient id="paint1_linear_7266_15582" x1="112.971" y1="107.433" x2="173.517" y2="107.433" gradientUnits="userSpaceOnUse">
<stop offset="0.145" stop-color="#408415"/>
<stop offset="0.57" stop-color="#FB5F51"/>
<stop offset="0.72" stop-color="#FFCD29"/>
<stop offset="1" stop-color="#C2F31F"/>
</linearGradient>
<linearGradient id="paint2_linear_7266_15582" x1="153.581" y1="105.587" x2="193.453" y2="105.587" gradientUnits="userSpaceOnUse">
<stop offset="0.145" stop-color="#51B314"/>
<stop offset="0.57" stop-color="#FB5F51"/>
<stop offset="0.72" stop-color="#FECB23"/>
<stop offset="1" stop-color="#C2F31F"/>
</linearGradient>
<linearGradient id="paint3_linear_7266_15582" x1="153.581" y1="105.587" x2="193.453" y2="105.587" gradientUnits="userSpaceOnUse">
<stop offset="0.145" stop-color="#408415"/>
<stop offset="0.57" stop-color="#FB5F51"/>
<stop offset="0.72" stop-color="#FFCD29"/>
<stop offset="1" stop-color="#C2F31F"/>
</linearGradient>
<linearGradient id="paint4_linear_7266_15582" x1="77.0859" y1="107.433" x2="126.705" y2="107.433" gradientUnits="userSpaceOnUse">
<stop offset="0.145" stop-color="#408415"/>
<stop offset="0.57" stop-color="#FB5F51"/>
<stop offset="0.72" stop-color="#FFCD29"/>
<stop offset="1" stop-color="#C2F31F"/>
</linearGradient>
<linearGradient id="paint5_linear_7266_15582" x1="52.2766" y1="107.433" x2="89.4906" y2="107.433" gradientUnits="userSpaceOnUse">
<stop offset="0.145" stop-color="#408415"/>
<stop offset="0.57" stop-color="#FB5F51"/>
<stop offset="0.72" stop-color="#FFCD29"/>
<stop offset="1" stop-color="#C2F31F"/>
</linearGradient>
</defs>
</svg>
