<svg width="32" height="33" viewBox="0 0 32 33" fill="none" xmlns="http://www.w3.org/2000/svg">
<path d="M14.8 22.5H17.2V17.7H22V15.3H17.2V10.5H14.8V15.3H10V17.7H14.8V22.5ZM16 28.5C14.34 28.5 12.78 28.185 11.32 27.555C9.86 26.925 8.59 26.07 7.51 24.99C6.43 23.91 5.575 22.64 4.945 21.18C4.315 19.72 4 18.16 4 16.5C4 14.84 4.315 13.28 4.945 11.82C5.575 10.36 6.43 9.09 7.51 8.01C8.59 6.93 9.86 6.075 11.32 5.445C12.78 4.815 14.34 4.5 16 4.5C17.66 4.5 19.22 4.815 20.68 5.445C22.14 6.075 23.41 6.93 24.49 8.01C25.57 9.09 26.425 10.36 27.055 11.82C27.685 13.28 28 14.84 28 16.5C28 18.16 27.685 19.72 27.055 21.18C26.425 22.64 25.57 23.91 24.49 24.99C23.41 26.07 22.14 26.925 20.68 27.555C19.22 28.185 17.66 28.5 16 28.5ZM16 26.1C18.68 26.1 20.95 25.17 22.81 23.31C24.67 21.45 25.6 19.18 25.6 16.5C25.6 13.82 24.67 11.55 22.81 9.69C20.95 7.83 18.68 6.9 16 6.9C13.32 6.9 11.05 7.83 9.19 9.69C7.33 11.55 6.4 13.82 6.4 16.5C6.4 19.18 7.33 21.45 9.19 23.31C11.05 25.17 13.32 26.1 16 26.1Z" fill="#737373"/>
</svg>
